<svg xmlns="http://www.w3.org/2000/svg" xmlns:xlink="http://www.w3.org/1999/xlink" width="200" height="16" shape-rendering="crispEdges"> 
<rect x="0.0" width="10.0" height="16" fill="rgb(20, 27, 30)"></rect> 
<rect x="10.0" width="10.0" height="16" fill="rgb(30, 37, 40)"></rect> 
<rect x="20.0" width="10.0" height="16" fill="rgb(35, 42, 45)"></rect> 
<rect x="30.0" width="10.0" height="16" fill="rgb(45, 52, 55)"></rect> 
<rect x="40.0" width="10.0" height="16" fill="rgb(64, 71, 73)"></rect> 
<rect x="50.0" width="10.0" height="16" fill="rgb(73, 80, 80)"></rect> 
<rect x="60.0" width="10.0" height="16" fill="rgb(136, 0, 204)"></rect> 
<rect x="70.0" width="10.0" height="16" fill="rgb(109, 120, 118)"></rect> 
<rect x="80.0" width="10.0" height="16" fill="rgb(117, 207, 114)"></rect> 
<rect x="90.0" width="10.0" height="16" fill="rgb(229, 116, 116)"></rect> 
<rect x="100.0" width="10.0" height="16" fill="rgb(108, 191, 191)"></rect> 
<rect x="110.0" width="10.0" height="16" fill="rgb(103, 176, 232)"></rect> 
<rect x="120.0" width="10.0" height="16" fill="rgb(169, 175, 174)"></rect> 
<rect x="130.0" width="10.0" height="16" fill="rgb(229, 199, 107)"></rect> 
<rect x="140.0" width="10.0" height="16" fill="rgb(179, 185, 184)"></rect> 
<rect x="150.0" width="10.0" height="16" fill="rgb(186, 179, 229)"></rect> 
<rect x="160.0" width="10.0" height="16" fill="rgb(196, 189, 239)"></rect> 
<rect x="170.0" width="10.0" height="16" fill="rgb(218, 218, 218)"></rect> 
<rect x="180.0" width="10.0" height="16" fill="rgb(230, 230, 230)"></rect> 
<rect x="190.0" width="10.0" height="16" fill="rgb(255, 255, 255)"></rect> 
</svg>