<svg xmlns="http://www.w3.org/2000/svg" xmlns:xlink="http://www.w3.org/1999/xlink" width="200" height="16" shape-rendering="crispEdges"> 
<rect x="0.0" width="9.5238095238095" height="16" fill="rgb(16, 15, 15)"></rect> 
<rect x="9.5238095238095" width="9.5238095238095" height="16" fill="rgb(28, 27, 26)"></rect> 
<rect x="19.047619047619" width="9.5238095238095" height="16" fill="rgb(40, 39, 38)"></rect> 
<rect x="28.571428571429" width="9.5238095238095" height="16" fill="rgb(53, 49, 49)"></rect> 
<rect x="38.095238095238" width="9.5238095238095" height="16" fill="rgb(52, 51, 49)"></rect> 
<rect x="47.619047619048" width="9.5238095238095" height="16" fill="rgb(64, 62, 60)"></rect> 
<rect x="57.142857142857" width="9.5238095238095" height="16" fill="rgb(102, 128, 11)"></rect> 
<rect x="66.666666666667" width="9.5238095238095" height="16" fill="rgb(87, 86, 83)"></rect> 
<rect x="76.190476190476" width="9.5238095238095" height="16" fill="rgb(91, 87, 90)"></rect> 
<rect x="85.714285714286" width="9.5238095238095" height="16" fill="rgb(36, 131, 123)"></rect> 
<rect x="95.238095238095" width="9.5238095238095" height="16" fill="rgb(188, 82, 21)"></rect> 
<rect x="104.7619047619" width="9.5238095238095" height="16" fill="rgb(32, 94, 166)"></rect> 
<rect x="114.28571428571" width="9.5238095238095" height="16" fill="rgb(173, 131, 1)"></rect> 
<rect x="123.80952380952" width="9.5238095238095" height="16" fill="rgb(94, 64, 157)"></rect> 
<rect x="133.33333333333" width="9.5238095238095" height="16" fill="rgb(111, 110, 105)"></rect> 
<rect x="142.85714285714" width="9.5238095238095" height="16" fill="rgb(211, 76, 69)"></rect> 
<rect x="152.38095238095" width="9.5238095238095" height="16" fill="rgb(135, 133, 128)"></rect> 
<rect x="161.90476190476" width="9.5238095238095" height="16" fill="rgb(62, 135, 218)"></rect> 
<rect x="171.42857142857" width="9.5238095238095" height="16" fill="rgb(255, 194, 26)"></rect> 
<rect x="180.95238095238" width="9.5238095238095" height="16" fill="rgb(206, 205, 195)"></rect> 
<rect x="190.47619047619" width="9.5238095238095" height="16" fill="rgb(218, 216, 206)"></rect> 
</svg>