<svg xmlns="http://www.w3.org/2000/svg" xmlns:xlink="http://www.w3.org/1999/xlink" width="200" height="16" shape-rendering="crispEdges"> 
<rect x="0.0" width="9.0909090909091" height="16" fill="rgb(28, 27, 26)"></rect> 
<rect x="9.0909090909091" width="9.0909090909091" height="16" fill="rgb(53, 51, 49)"></rect> 
<rect x="18.181818181818" width="9.0909090909091" height="16" fill="rgb(79, 78, 74)"></rect> 
<rect x="27.272727272727" width="9.0909090909091" height="16" fill="rgb(204, 102, 0)"></rect> 
<rect x="36.363636363636" width="9.0909090909091" height="16" fill="rgb(124, 118, 80)"></rect> 
<rect x="45.454545454545" width="9.0909090909091" height="16" fill="rgb(111, 110, 105)"></rect> 
<rect x="54.545454545455" width="9.0909090909091" height="16" fill="rgb(135, 154, 57)"></rect> 
<rect x="63.636363636364" width="9.0909090909091" height="16" fill="rgb(59, 118, 171)"></rect> 
<rect x="72.727272727273" width="9.0909090909091" height="16" fill="rgb(209, 77, 65)"></rect> 
<rect x="81.818181818182" width="9.0909090909091" height="16" fill="rgb(218, 112, 44)"></rect> 
<rect x="90.909090909091" width="9.0909090909091" height="16" fill="rgb(133, 126, 122)"></rect> 
<rect x="100.0" width="9.0909090909091" height="16" fill="rgb(58, 169, 159)"></rect> 
<rect x="109.09090909091" width="9.0909090909091" height="16" fill="rgb(208, 162, 21)"></rect> 
<rect x="118.18181818182" width="9.0909090909091" height="16" fill="rgb(139, 126, 200)"></rect> 
<rect x="127.27272727273" width="9.0909090909091" height="16" fill="rgb(168, 167, 163)"></rect> 
<rect x="136.36363636364" width="9.0909090909091" height="16" fill="rgb(183, 181, 172)"></rect> 
<rect x="145.45454545455" width="9.0909090909091" height="16" fill="rgb(206, 205, 195)"></rect> 
<rect x="154.54545454545" width="9.0909090909091" height="16" fill="rgb(218, 216, 206)"></rect> 
<rect x="163.63636363636" width="9.0909090909091" height="16" fill="rgb(230, 228, 217)"></rect> 
<rect x="172.72727272727" width="9.0909090909091" height="16" fill="rgb(242, 240, 229)"></rect> 
<rect x="181.81818181818" width="9.0909090909091" height="16" fill="rgb(255, 252, 240)"></rect> 
<rect x="190.90909090909" width="9.0909090909091" height="16" fill="rgb(255, 255, 255)"></rect> 
</svg>