<svg xmlns="http://www.w3.org/2000/svg" xmlns:xlink="http://www.w3.org/1999/xlink" width="200" height="16" shape-rendering="crispEdges"> 
<rect x="0.0" width="8.695652173913" height="16" fill="rgb(16, 15, 15)"></rect> 
<rect x="8.695652173913" width="8.695652173913" height="16" fill="rgb(28, 27, 26)"></rect> 
<rect x="17.391304347826" width="8.695652173913" height="16" fill="rgb(52, 51, 49)"></rect> 
<rect x="26.086956521739" width="8.695652173913" height="16" fill="rgb(64, 62, 60)"></rect> 
<rect x="34.782608695652" width="8.695652173913" height="16" fill="rgb(65, 64, 62)"></rect> 
<rect x="43.478260869565" width="8.695652173913" height="16" fill="rgb(79, 78, 74)"></rect> 
<rect x="52.173913043478" width="8.695652173913" height="16" fill="rgb(102, 128, 11)"></rect> 
<rect x="60.869565217391" width="8.695652173913" height="16" fill="rgb(36, 131, 123)"></rect> 
<rect x="69.565217391304" width="8.695652173913" height="16" fill="rgb(188, 82, 21)"></rect> 
<rect x="78.260869565217" width="8.695652173913" height="16" fill="rgb(173, 131, 1)"></rect> 
<rect x="86.95652173913" width="8.695652173913" height="16" fill="rgb(204, 102, 0)"></rect> 
<rect x="95.652173913043" width="8.695652173913" height="16" fill="rgb(111, 110, 105)"></rect> 
<rect x="104.34782608696" width="8.695652173913" height="16" fill="rgb(126, 124, 103)"></rect> 
<rect x="113.04347826087" width="8.695652173913" height="16" fill="rgb(211, 76, 69)"></rect> 
<rect x="121.73913043478" width="8.695652173913" height="16" fill="rgb(108, 74, 181)"></rect> 
<rect x="130.4347826087" width="8.695652173913" height="16" fill="rgb(135, 133, 128)"></rect> 
<rect x="139.13043478261" width="8.695652173913" height="16" fill="rgb(144, 141, 137)"></rect> 
<rect x="147.82608695652" width="8.695652173913" height="16" fill="rgb(157, 149, 149)"></rect> 
<rect x="156.52173913043" width="8.695652173913" height="16" fill="rgb(105, 162, 226)"></rect> 
<rect x="165.21739130435" width="8.695652173913" height="16" fill="rgb(198, 196, 185)"></rect> 
<rect x="173.91304347826" width="8.695652173913" height="16" fill="rgb(206, 205, 195)"></rect> 
<rect x="182.60869565217" width="8.695652173913" height="16" fill="rgb(218, 216, 206)"></rect> 
<rect x="191.30434782609" width="8.695652173913" height="16" fill="rgb(255, 255, 255)"></rect> 
</svg>