<svg xmlns="http://www.w3.org/2000/svg" xmlns:xlink="http://www.w3.org/1999/xlink" width="200" height="16" shape-rendering="crispEdges"> 
<rect x="0.0" width="10.0" height="16" fill="rgb(24, 24, 24)"></rect> 
<rect x="10.0" width="10.0" height="16" fill="rgb(36, 41, 46)"></rect> 
<rect x="20.0" width="10.0" height="16" fill="rgb(3, 47, 98)"></rect> 
<rect x="30.0" width="10.0" height="16" fill="rgb(64, 64, 64)"></rect> 
<rect x="40.0" width="10.0" height="16" fill="rgb(0, 92, 197)"></rect> 
<rect x="50.0" width="10.0" height="16" fill="rgb(3, 102, 214)"></rect> 
<rect x="60.0" width="10.0" height="16" fill="rgb(215, 58, 73)"></rect> 
<rect x="70.0" width="10.0" height="16" fill="rgb(106, 115, 125)"></rect> 
<rect x="80.0" width="10.0" height="16" fill="rgb(128, 128, 128)"></rect> 
<rect x="90.0" width="10.0" height="16" fill="rgb(59, 109, 217)"></rect> 
<rect x="100.0" width="10.0" height="16" fill="rgb(176, 176, 176)"></rect> 
<rect x="110.0" width="10.0" height="16" fill="rgb(192, 192, 192)"></rect> 
<rect x="120.0" width="10.0" height="16" fill="rgb(208, 208, 208)"></rect> 
<rect x="130.0" width="10.0" height="16" fill="rgb(183, 220, 232)"></rect> 
<rect x="140.0" width="10.0" height="16" fill="rgb(224, 224, 224)"></rect> 
<rect x="150.0" width="10.0" height="16" fill="rgb(232, 232, 232)"></rect> 
<rect x="160.0" width="10.0" height="16" fill="rgb(234, 234, 234)"></rect> 
<rect x="170.0" width="10.0" height="16" fill="rgb(242, 242, 242)"></rect> 
<rect x="180.0" width="10.0" height="16" fill="rgb(251, 251, 251)"></rect> 
<rect x="190.0" width="10.0" height="16" fill="rgb(255, 255, 255)"></rect> 
</svg>