<svg xmlns="http://www.w3.org/2000/svg" xmlns:xlink="http://www.w3.org/1999/xlink" width="200" height="16" shape-rendering="crispEdges"> 
<rect x="0.0" width="7.1428571428571" height="16" fill="rgb(0, 0, 0)"></rect> 
<rect x="7.1428571428571" width="7.1428571428571" height="16" fill="rgb(0, 71, 0)"></rect> 
<rect x="14.285714285714" width="7.1428571428571" height="16" fill="rgb(8, 110, 35)"></rect> 
<rect x="21.428571428571" width="7.1428571428571" height="16" fill="rgb(77, 77, 77)"></rect> 
<rect x="28.571428571429" width="7.1428571428571" height="16" fill="rgb(0, 194, 39)"></rect> 
<rect x="35.714285714286" width="7.1428571428571" height="16" fill="rgb(2, 232, 6)"></rect> 
<rect x="42.857142857143" width="7.1428571428571" height="16" fill="rgb(2, 207, 33)"></rect> 
<rect x="50.0" width="7.1428571428571" height="16" fill="rgb(0, 237, 24)"></rect> 
<rect x="57.142857142857" width="7.1428571428571" height="16" fill="rgb(0, 255, 26)"></rect> 
<rect x="64.285714285714" width="7.1428571428571" height="16" fill="rgb(0, 255, 30)"></rect> 
<rect x="71.428571428571" width="7.1428571428571" height="16" fill="rgb(0, 242, 48)"></rect> 
<rect x="78.571428571429" width="7.1428571428571" height="16" fill="rgb(28, 124, 156)"></rect> 
<rect x="85.714285714286" width="7.1428571428571" height="16" fill="rgb(17, 189, 103)"></rect> 
<rect x="92.857142857143" width="7.1428571428571" height="16" fill="rgb(150, 106, 59)"></rect> 
<rect x="100.0" width="7.1428571428571" height="16" fill="rgb(255, 51, 51)"></rect> 
<rect x="107.14285714286" width="7.1428571428571" height="16" fill="rgb(36, 237, 96)"></rect> 
<rect x="114.28571428571" width="7.1428571428571" height="16" fill="rgb(131, 131, 143)"></rect> 
<rect x="121.42857142857" width="7.1428571428571" height="16" fill="rgb(66, 240, 118)"></rect> 
<rect x="128.57142857143" width="7.1428571428571" height="16" fill="rgb(114, 184, 134)"></rect> 
<rect x="135.71428571429" width="7.1428571428571" height="16" fill="rgb(139, 148, 158)"></rect> 
<rect x="142.85714285714" width="7.1428571428571" height="16" fill="rgb(255, 202, 10)"></rect> 
<rect x="150.0" width="7.1428571428571" height="16" fill="rgb(255, 79, 144)"></rect> 
<rect x="157.14285714286" width="7.1428571428571" height="16" fill="rgb(18, 215, 255)"></rect> 
<rect x="164.28571428571" width="7.1428571428571" height="16" fill="rgb(43, 223, 255)"></rect> 
<rect x="171.42857142857" width="7.1428571428571" height="16" fill="rgb(255, 87, 182)"></rect> 
<rect x="178.57142857143" width="7.1428571428571" height="16" fill="rgb(51, 255, 231)"></rect> 
<rect x="185.71428571429" width="7.1428571428571" height="16" fill="rgb(163, 211, 252)"></rect> 
<rect x="192.85714285714" width="7.1428571428571" height="16" fill="rgb(255, 255, 255)"></rect> 
</svg>