<svg xmlns="http://www.w3.org/2000/svg" xmlns:xlink="http://www.w3.org/1999/xlink" width="200" height="16" shape-rendering="crispEdges"> 
<rect x="0.0" width="9.0909090909091" height="16" fill="rgb(20, 20, 20)"></rect> 
<rect x="9.0909090909091" width="9.0909090909091" height="16" fill="rgb(22, 22, 22)"></rect> 
<rect x="18.181818181818" width="9.0909090909091" height="16" fill="rgb(30, 30, 30)"></rect> 
<rect x="27.272727272727" width="9.0909090909091" height="16" fill="rgb(51, 51, 51)"></rect> 
<rect x="36.363636363636" width="9.0909090909091" height="16" fill="rgb(58, 58, 58)"></rect> 
<rect x="45.454545454545" width="9.0909090909091" height="16" fill="rgb(68, 68, 68)"></rect> 
<rect x="54.545454545455" width="9.0909090909091" height="16" fill="rgb(72, 72, 72)"></rect> 
<rect x="63.636363636364" width="9.0909090909091" height="16" fill="rgb(85, 85, 85)"></rect> 
<rect x="72.727272727273" width="9.0909090909091" height="16" fill="rgb(106, 106, 106)"></rect> 
<rect x="81.818181818182" width="9.0909090909091" height="16" fill="rgb(122, 163, 41)"></rect> 
<rect x="90.909090909091" width="9.0909090909091" height="16" fill="rgb(217, 159, 13)"></rect> 
<rect x="100.0" width="9.0909090909091" height="16" fill="rgb(106, 90, 205)"></rect> 
<rect x="109.09090909091" width="9.0909090909091" height="16" fill="rgb(198, 159, 108)"></rect> 
<rect x="118.18181818182" width="9.0909090909091" height="16" fill="rgb(230, 125, 116)"></rect> 
<rect x="127.27272727273" width="9.0909090909091" height="16" fill="rgb(205, 170, 125)"></rect> 
<rect x="136.36363636364" width="9.0909090909091" height="16" fill="rgb(211, 183, 146)"></rect> 
<rect x="145.45454545455" width="9.0909090909091" height="16" fill="rgb(212, 183, 145)"></rect> 
<rect x="154.54545454545" width="9.0909090909091" height="16" fill="rgb(214, 153, 181)"></rect> 
<rect x="163.63636363636" width="9.0909090909091" height="16" fill="rgb(255, 204, 102)"></rect> 
<rect x="172.72727272727" width="9.0909090909091" height="16" fill="rgb(219, 195, 163)"></rect> 
<rect x="181.81818181818" width="9.0909090909091" height="16" fill="rgb(234, 219, 200)"></rect> 
<rect x="190.90909090909" width="9.0909090909091" height="16" fill="rgb(255, 255, 255)"></rect> 
</svg>