<svg xmlns="http://www.w3.org/2000/svg" xmlns:xlink="http://www.w3.org/1999/xlink" width="200" height="16" shape-rendering="crispEdges"> 
<rect x="0.0" width="8.695652173913" height="16" fill="rgb(20, 20, 20)"></rect> 
<rect x="8.695652173913" width="8.695652173913" height="16" fill="rgb(22, 22, 22)"></rect> 
<rect x="17.391304347826" width="8.695652173913" height="16" fill="rgb(30, 30, 30)"></rect> 
<rect x="26.086956521739" width="8.695652173913" height="16" fill="rgb(43, 43, 43)"></rect> 
<rect x="34.782608695652" width="8.695652173913" height="16" fill="rgb(58, 58, 58)"></rect> 
<rect x="43.478260869565" width="8.695652173913" height="16" fill="rgb(68, 68, 68)"></rect> 
<rect x="52.173913043478" width="8.695652173913" height="16" fill="rgb(72, 72, 72)"></rect> 
<rect x="60.869565217391" width="8.695652173913" height="16" fill="rgb(85, 85, 85)"></rect> 
<rect x="69.565217391304" width="8.695652173913" height="16" fill="rgb(106, 106, 106)"></rect> 
<rect x="78.260869565217" width="8.695652173913" height="16" fill="rgb(122, 163, 41)"></rect> 
<rect x="86.95652173913" width="8.695652173913" height="16" fill="rgb(112, 112, 112)"></rect> 
<rect x="95.652173913043" width="8.695652173913" height="16" fill="rgb(217, 159, 13)"></rect> 
<rect x="104.34782608696" width="8.695652173913" height="16" fill="rgb(106, 90, 205)"></rect> 
<rect x="113.04347826087" width="8.695652173913" height="16" fill="rgb(198, 159, 108)"></rect> 
<rect x="121.73913043478" width="8.695652173913" height="16" fill="rgb(230, 125, 116)"></rect> 
<rect x="130.4347826087" width="8.695652173913" height="16" fill="rgb(205, 170, 125)"></rect> 
<rect x="139.13043478261" width="8.695652173913" height="16" fill="rgb(211, 183, 146)"></rect> 
<rect x="147.82608695652" width="8.695652173913" height="16" fill="rgb(212, 183, 145)"></rect> 
<rect x="156.52173913043" width="8.695652173913" height="16" fill="rgb(214, 153, 181)"></rect> 
<rect x="165.21739130435" width="8.695652173913" height="16" fill="rgb(255, 204, 102)"></rect> 
<rect x="173.91304347826" width="8.695652173913" height="16" fill="rgb(219, 195, 163)"></rect> 
<rect x="182.60869565217" width="8.695652173913" height="16" fill="rgb(234, 219, 200)"></rect> 
<rect x="191.30434782609" width="8.695652173913" height="16" fill="rgb(255, 255, 255)"></rect> 
</svg>