<svg xmlns="http://www.w3.org/2000/svg" xmlns:xlink="http://www.w3.org/1999/xlink" width="200" height="16" shape-rendering="crispEdges"> 
<rect x="0.0" width="8.0" height="16" fill="rgb(24, 24, 24)"></rect> 
<rect x="8.0" width="8.0" height="16" fill="rgb(38, 38, 38)"></rect> 
<rect x="16.0" width="8.0" height="16" fill="rgb(41, 41, 41)"></rect> 
<rect x="24.0" width="8.0" height="16" fill="rgb(49, 49, 49)"></rect> 
<rect x="32.0" width="8.0" height="16" fill="rgb(54, 54, 54)"></rect> 
<rect x="40.0" width="8.0" height="16" fill="rgb(58, 58, 58)"></rect> 
<rect x="48.0" width="8.0" height="16" fill="rgb(27, 65, 116)"></rect> 
<rect x="56.0" width="8.0" height="16" fill="rgb(77, 77, 77)"></rect> 
<rect x="64.0" width="8.0" height="16" fill="rgb(83, 83, 83)"></rect> 
<rect x="72.0" width="8.0" height="16" fill="rgb(109, 109, 109)"></rect> 
<rect x="80.0" width="8.0" height="16" fill="rgb(66, 240, 118)"></rect> 
<rect x="88.0" width="8.0" height="16" fill="rgb(253, 72, 131)"></rect> 
<rect x="96.0" width="8.0" height="16" fill="rgb(88, 166, 255)"></rect> 
<rect x="104.0" width="8.0" height="16" fill="rgb(127, 205, 192)"></rect> 
<rect x="112.0" width="8.0" height="16" fill="rgb(121, 214, 197)"></rect> 
<rect x="120.0" width="8.0" height="16" fill="rgb(240, 116, 180)"></rect> 
<rect x="128.0" width="8.0" height="16" fill="rgb(192, 142, 203)"></rect> 
<rect x="136.0" width="8.0" height="16" fill="rgb(238, 175, 131)"></rect> 
<rect x="144.0" width="8.0" height="16" fill="rgb(247, 198, 106)"></rect> 
<rect x="152.0" width="8.0" height="16" fill="rgb(187, 187, 187)"></rect> 
<rect x="160.0" width="8.0" height="16" fill="rgb(170, 160, 247)"></rect> 
<rect x="168.0" width="8.0" height="16" fill="rgb(135, 195, 255)"></rect> 
<rect x="176.0" width="8.0" height="16" fill="rgb(175, 156, 255)"></rect> 
<rect x="184.0" width="8.0" height="16" fill="rgb(201, 209, 217)"></rect> 
<rect x="192.0" width="8.0" height="16" fill="rgb(230, 230, 230)"></rect> 
</svg>