<svg xmlns="http://www.w3.org/2000/svg" xmlns:xlink="http://www.w3.org/1999/xlink" width="200" height="16" shape-rendering="crispEdges"> 
<rect x="0.0" width="10.0" height="16" fill="rgb(19, 23, 30)"></rect> 
<rect x="10.0" width="10.0" height="16" fill="rgb(28, 31, 37)"></rect> 
<rect x="20.0" width="10.0" height="16" fill="rgb(36, 34, 35)"></rect> 
<rect x="30.0" width="10.0" height="16" fill="rgb(33, 37, 43)"></rect> 
<rect x="40.0" width="10.0" height="16" fill="rgb(50, 54, 65)"></rect> 
<rect x="50.0" width="10.0" height="16" fill="rgb(61, 63, 67)"></rect> 
<rect x="60.0" width="10.0" height="16" fill="rgb(62, 68, 81)"></rect> 
<rect x="70.0" width="10.0" height="16" fill="rgb(89, 91, 95)"></rect> 
<rect x="80.0" width="10.0" height="16" fill="rgb(84, 94, 112)"></rect> 
<rect x="90.0" width="10.0" height="16" fill="rgb(92, 99, 112)"></rect> 
<rect x="100.0" width="10.0" height="16" fill="rgb(89, 98, 117)"></rect> 
<rect x="110.0" width="10.0" height="16" fill="rgb(204, 102, 0)"></rect> 
<rect x="120.0" width="10.0" height="16" fill="rgb(101, 112, 133)"></rect> 
<rect x="130.0" width="10.0" height="16" fill="rgb(234, 89, 100)"></rect> 
<rect x="140.0" width="10.0" height="16" fill="rgb(152, 200, 117)"></rect> 
<rect x="150.0" width="10.0" height="16" fill="rgb(113, 169, 215)"></rect> 
<rect x="160.0" width="10.0" height="16" fill="rgb(171, 178, 191)"></rect> 
<rect x="170.0" width="10.0" height="16" fill="rgb(182, 190, 204)"></rect> 
<rect x="180.0" width="10.0" height="16" fill="rgb(187, 195, 209)"></rect> 
<rect x="190.0" width="10.0" height="16" fill="rgb(255, 255, 255)"></rect> 
</svg>