<svg xmlns="http://www.w3.org/2000/svg" xmlns:xlink="http://www.w3.org/1999/xlink" width="200" height="16" shape-rendering="crispEdges"> 
<rect x="0.0" width="8.695652173913" height="16" fill="rgb(29, 34, 39)"></rect> 
<rect x="8.695652173913" width="8.695652173913" height="16" fill="rgb(36, 34, 35)"></rect> 
<rect x="17.391304347826" width="8.695652173913" height="16" fill="rgb(48, 56, 65)"></rect> 
<rect x="26.086956521739" width="8.695652173913" height="16" fill="rgb(68, 75, 83)"></rect> 
<rect x="34.782608695652" width="8.695652173913" height="16" fill="rgb(76, 88, 99)"></rect> 
<rect x="43.478260869565" width="8.695652173913" height="16" fill="rgb(84, 97, 109)"></rect> 
<rect x="52.173913043478" width="8.695652173913" height="16" fill="rgb(204, 102, 0)"></rect> 
<rect x="60.869565217391" width="8.695652173913" height="16" fill="rgb(105, 111, 117)"></rect> 
<rect x="69.565217391304" width="8.695652173913" height="16" fill="rgb(194, 103, 79)"></rect> 
<rect x="78.260869565217" width="8.695652173913" height="16" fill="rgb(231, 85, 80)"></rect> 
<rect x="86.95652173913" width="8.695652173913" height="16" fill="rgb(147, 157, 93)"></rect> 
<rect x="95.652173913043" width="8.695652173913" height="16" fill="rgb(132, 139, 149)"></rect> 
<rect x="104.34782608696" width="8.695652173913" height="16" fill="rgb(229, 94, 102)"></rect> 
<rect x="113.04347826087" width="8.695652173913" height="16" fill="rgb(239, 97, 121)"></rect> 
<rect x="121.73913043478" width="8.695652173913" height="16" fill="rgb(102, 153, 202)"></rect> 
<rect x="130.4347826087" width="8.695652173913" height="16" fill="rgb(171, 174, 156)"></rect> 
<rect x="139.13043478261" width="8.695652173913" height="16" fill="rgb(166, 172, 185)"></rect> 
<rect x="147.82608695652" width="8.695652173913" height="16" fill="rgb(97, 239, 206)"></rect> 
<rect x="156.52173913043" width="8.695652173913" height="16" fill="rgb(255, 209, 82)"></rect> 
<rect x="165.21739130435" width="8.695652173913" height="16" fill="rgb(191, 197, 208)"></rect> 
<rect x="173.91304347826" width="8.695652173913" height="16" fill="rgb(215, 221, 233)"></rect> 
<rect x="182.60869565217" width="8.695652173913" height="16" fill="rgb(216, 222, 233)"></rect> 
<rect x="191.30434782609" width="8.695652173913" height="16" fill="rgb(255, 255, 255)"></rect> 
</svg>