<svg xmlns="http://www.w3.org/2000/svg" xmlns:xlink="http://www.w3.org/1999/xlink" width="200" height="16" shape-rendering="crispEdges"> 
<rect x="0.0" width="9.0909090909091" height="16" fill="rgb(29, 34, 39)"></rect> 
<rect x="9.0909090909091" width="9.0909090909091" height="16" fill="rgb(36, 34, 35)"></rect> 
<rect x="18.181818181818" width="9.0909090909091" height="16" fill="rgb(48, 56, 65)"></rect> 
<rect x="27.272727272727" width="9.0909090909091" height="16" fill="rgb(68, 75, 83)"></rect> 
<rect x="36.363636363636" width="9.0909090909091" height="16" fill="rgb(76, 88, 99)"></rect> 
<rect x="45.454545454545" width="9.0909090909091" height="16" fill="rgb(105, 111, 117)"></rect> 
<rect x="54.545454545455" width="9.0909090909091" height="16" fill="rgb(98, 112, 132)"></rect> 
<rect x="63.636363636364" width="9.0909090909091" height="16" fill="rgb(194, 103, 79)"></rect> 
<rect x="72.727272727273" width="9.0909090909091" height="16" fill="rgb(231, 85, 80)"></rect> 
<rect x="81.818181818182" width="9.0909090909091" height="16" fill="rgb(147, 157, 93)"></rect> 
<rect x="90.909090909091" width="9.0909090909091" height="16" fill="rgb(132, 139, 149)"></rect> 
<rect x="100.0" width="9.0909090909091" height="16" fill="rgb(229, 94, 102)"></rect> 
<rect x="109.09090909091" width="9.0909090909091" height="16" fill="rgb(239, 97, 121)"></rect> 
<rect x="118.18181818182" width="9.0909090909091" height="16" fill="rgb(102, 153, 202)"></rect> 
<rect x="127.27272727273" width="9.0909090909091" height="16" fill="rgb(158, 161, 145)"></rect> 
<rect x="136.36363636364" width="9.0909090909091" height="16" fill="rgb(166, 172, 185)"></rect> 
<rect x="145.45454545455" width="9.0909090909091" height="16" fill="rgb(97, 239, 206)"></rect> 
<rect x="154.54545454545" width="9.0909090909091" height="16" fill="rgb(255, 209, 82)"></rect> 
<rect x="163.63636363636" width="9.0909090909091" height="16" fill="rgb(255, 204, 102)"></rect> 
<rect x="172.72727272727" width="9.0909090909091" height="16" fill="rgb(191, 197, 208)"></rect> 
<rect x="181.81818181818" width="9.0909090909091" height="16" fill="rgb(215, 221, 233)"></rect> 
<rect x="190.90909090909" width="9.0909090909091" height="16" fill="rgb(216, 222, 233)"></rect> 
</svg>