<svg xmlns="http://www.w3.org/2000/svg" xmlns:xlink="http://www.w3.org/1999/xlink" width="200" height="16" shape-rendering="crispEdges"> 
<rect x="0.0" width="6.8965517241379" height="16" fill="rgb(30, 30, 30)"></rect> 
<rect x="6.8965517241379" width="6.8965517241379" height="16" fill="rgb(30, 31, 34)"></rect> 
<rect x="13.793103448276" width="6.8965517241379" height="16" fill="rgb(51, 58, 74)"></rect> 
<rect x="20.689655172414" width="6.8965517241379" height="16" fill="rgb(47, 67, 84)"></rect> 
<rect x="27.586206896552" width="6.8965517241379" height="16" fill="rgb(64, 74, 84)"></rect> 
<rect x="34.48275862069" width="6.8965517241379" height="16" fill="rgb(75, 75, 82)"></rect> 
<rect x="41.379310344828" width="6.8965517241379" height="16" fill="rgb(255, 0, 0)"></rect> 
<rect x="48.275862068966" width="6.8965517241379" height="16" fill="rgb(82, 91, 100)"></rect> 
<rect x="55.172413793103" width="6.8965517241379" height="16" fill="rgb(98, 112, 132)"></rect> 
<rect x="62.068965517241" width="6.8965517241379" height="16" fill="rgb(255, 51, 51)"></rect> 
<rect x="68.965517241379" width="6.8965517241379" height="16" fill="rgb(118, 118, 130)"></rect> 
<rect x="75.862068965517" width="6.8965517241379" height="16" fill="rgb(131, 131, 143)"></rect> 
<rect x="82.758620689655" width="6.8965517241379" height="16" fill="rgb(102, 255, 51)"></rect> 
<rect x="89.655172413793" width="6.8965517241379" height="16" fill="rgb(114, 184, 134)"></rect> 
<rect x="96.551724137931" width="6.8965517241379" height="16" fill="rgb(145, 145, 145)"></rect> 
<rect x="103.44827586207" width="6.8965517241379" height="16" fill="rgb(148, 148, 148)"></rect> 
<rect x="110.34482758621" width="6.8965517241379" height="16" fill="rgb(139, 148, 158)"></rect> 
<rect x="117.24137931034" width="6.8965517241379" height="16" fill="rgb(224, 211, 22)"></rect> 
<rect x="124.13793103448" width="6.8965517241379" height="16" fill="rgb(255, 202, 10)"></rect> 
<rect x="131.03448275862" width="6.8965517241379" height="16" fill="rgb(255, 79, 144)"></rect> 
<rect x="137.93103448276" width="6.8965517241379" height="16" fill="rgb(18, 215, 255)"></rect> 
<rect x="144.8275862069" width="6.8965517241379" height="16" fill="rgb(245, 231, 40)"></rect> 
<rect x="151.72413793103" width="6.8965517241379" height="16" fill="rgb(43, 223, 255)"></rect> 
<rect x="158.62068965517" width="6.8965517241379" height="16" fill="rgb(255, 87, 182)"></rect> 
<rect x="165.51724137931" width="6.8965517241379" height="16" fill="rgb(179, 179, 179)"></rect> 
<rect x="172.41379310345" width="6.8965517241379" height="16" fill="rgb(51, 255, 231)"></rect> 
<rect x="179.31034482759" width="6.8965517241379" height="16" fill="rgb(147, 221, 250)"></rect> 
<rect x="186.20689655172" width="6.8965517241379" height="16" fill="rgb(163, 211, 252)"></rect> 
<rect x="193.10344827586" width="6.8965517241379" height="16" fill="rgb(255, 255, 255)"></rect> 
</svg>