<svg xmlns="http://www.w3.org/2000/svg" xmlns:xlink="http://www.w3.org/1999/xlink" width="200" height="16" shape-rendering="crispEdges"> 
<rect x="0.0" width="7.1428571428571" height="16" fill="rgb(30, 30, 30)"></rect> 
<rect x="7.1428571428571" width="7.1428571428571" height="16" fill="rgb(30, 31, 34)"></rect> 
<rect x="14.285714285714" width="7.1428571428571" height="16" fill="rgb(51, 58, 74)"></rect> 
<rect x="21.428571428571" width="7.1428571428571" height="16" fill="rgb(47, 67, 84)"></rect> 
<rect x="28.571428571429" width="7.1428571428571" height="16" fill="rgb(64, 74, 84)"></rect> 
<rect x="35.714285714286" width="7.1428571428571" height="16" fill="rgb(75, 75, 82)"></rect> 
<rect x="42.857142857143" width="7.1428571428571" height="16" fill="rgb(255, 0, 0)"></rect> 
<rect x="50.0" width="7.1428571428571" height="16" fill="rgb(82, 91, 100)"></rect> 
<rect x="57.142857142857" width="7.1428571428571" height="16" fill="rgb(204, 102, 0)"></rect> 
<rect x="64.285714285714" width="7.1428571428571" height="16" fill="rgb(255, 51, 51)"></rect> 
<rect x="71.428571428571" width="7.1428571428571" height="16" fill="rgb(118, 118, 130)"></rect> 
<rect x="78.571428571429" width="7.1428571428571" height="16" fill="rgb(131, 131, 143)"></rect> 
<rect x="85.714285714286" width="7.1428571428571" height="16" fill="rgb(114, 184, 134)"></rect> 
<rect x="92.857142857143" width="7.1428571428571" height="16" fill="rgb(145, 145, 145)"></rect> 
<rect x="100.0" width="7.1428571428571" height="16" fill="rgb(148, 148, 148)"></rect> 
<rect x="107.14285714286" width="7.1428571428571" height="16" fill="rgb(139, 148, 158)"></rect> 
<rect x="114.28571428571" width="7.1428571428571" height="16" fill="rgb(224, 211, 22)"></rect> 
<rect x="121.42857142857" width="7.1428571428571" height="16" fill="rgb(255, 202, 10)"></rect> 
<rect x="128.57142857143" width="7.1428571428571" height="16" fill="rgb(255, 79, 144)"></rect> 
<rect x="135.71428571429" width="7.1428571428571" height="16" fill="rgb(18, 215, 255)"></rect> 
<rect x="142.85714285714" width="7.1428571428571" height="16" fill="rgb(245, 231, 40)"></rect> 
<rect x="150.0" width="7.1428571428571" height="16" fill="rgb(43, 223, 255)"></rect> 
<rect x="157.14285714286" width="7.1428571428571" height="16" fill="rgb(255, 87, 182)"></rect> 
<rect x="164.28571428571" width="7.1428571428571" height="16" fill="rgb(51, 255, 231)"></rect> 
<rect x="171.42857142857" width="7.1428571428571" height="16" fill="rgb(147, 221, 250)"></rect> 
<rect x="178.57142857143" width="7.1428571428571" height="16" fill="rgb(163, 211, 252)"></rect> 
<rect x="185.71428571429" width="7.1428571428571" height="16" fill="rgb(209, 209, 209)"></rect> 
<rect x="192.85714285714" width="7.1428571428571" height="16" fill="rgb(255, 255, 255)"></rect> 
</svg>