<svg xmlns="http://www.w3.org/2000/svg" xmlns:xlink="http://www.w3.org/1999/xlink" width="200" height="16" shape-rendering="crispEdges"> 
<rect x="0.0" width="9.0909090909091" height="16" fill="rgb(24, 26, 31)"></rect> 
<rect x="9.0909090909091" width="9.0909090909091" height="16" fill="rgb(33, 37, 43)"></rect> 
<rect x="18.181818181818" width="9.0909090909091" height="16" fill="rgb(40, 44, 52)"></rect> 
<rect x="27.272727272727" width="9.0909090909091" height="16" fill="rgb(44, 51, 62)"></rect> 
<rect x="36.363636363636" width="9.0909090909091" height="16" fill="rgb(56, 61, 73)"></rect> 
<rect x="45.454545454545" width="9.0909090909091" height="16" fill="rgb(83, 87, 110)"></rect> 
<rect x="54.545454545455" width="9.0909090909091" height="16" fill="rgb(79, 88, 115)"></rect> 
<rect x="63.636363636364" width="9.0909090909091" height="16" fill="rgb(86, 97, 118)"></rect> 
<rect x="72.727272727273" width="9.0909090909091" height="16" fill="rgb(95, 105, 122)"></rect> 
<rect x="81.818181818182" width="9.0909090909091" height="16" fill="rgb(102, 107, 118)"></rect> 
<rect x="90.909090909091" width="9.0909090909091" height="16" fill="rgb(48, 96, 193)"></rect> 
<rect x="100.0" width="9.0909090909091" height="16" fill="rgb(235, 103, 114)"></rect> 
<rect x="109.09090909091" width="9.0909090909091" height="16" fill="rgb(86, 182, 194)"></rect> 
<rect x="118.18181818182" width="9.0909090909091" height="16" fill="rgb(219, 157, 99)"></rect> 
<rect x="127.27272727273" width="9.0909090909091" height="16" fill="rgb(82, 139, 255)"></rect> 
<rect x="136.36363636364" width="9.0909090909091" height="16" fill="rgb(154, 204, 118)"></rect> 
<rect x="145.45454545455" width="9.0909090909091" height="16" fill="rgb(92, 179, 250)"></rect> 
<rect x="154.54545454545" width="9.0909090909091" height="16" fill="rgb(171, 178, 191)"></rect> 
<rect x="163.63636363636" width="9.0909090909091" height="16" fill="rgb(230, 192, 123)"></rect> 
<rect x="172.72727272727" width="9.0909090909091" height="16" fill="rgb(205, 116, 232)"></rect> 
<rect x="181.81818181818" width="9.0909090909091" height="16" fill="rgb(128, 229, 255)"></rect> 
<rect x="190.90909090909" width="9.0909090909091" height="16" fill="rgb(255, 255, 255)"></rect> 
</svg>