<svg xmlns="http://www.w3.org/2000/svg" xmlns:xlink="http://www.w3.org/1999/xlink" width="200" height="16" shape-rendering="crispEdges"> 
<rect x="0.0" width="7.4074074074074" height="16" fill="rgb(36, 36, 36)"></rect> 
<rect x="7.4074074074074" width="7.4074074074074" height="16" fill="rgb(37, 37, 40)"></rect> 
<rect x="14.814814814815" width="7.4074074074074" height="16" fill="rgb(52, 52, 56)"></rect> 
<rect x="22.222222222222" width="7.4074074074074" height="16" fill="rgb(65, 65, 70)"></rect> 
<rect x="29.62962962963" width="7.4074074074074" height="16" fill="rgb(72, 72, 79)"></rect> 
<rect x="37.037037037037" width="7.4074074074074" height="16" fill="rgb(68, 71, 90)"></rect> 
<rect x="44.444444444444" width="7.4074074074074" height="16" fill="rgb(82, 82, 89)"></rect> 
<rect x="51.851851851852" width="7.4074074074074" height="16" fill="rgb(86, 97, 118)"></rect> 
<rect x="59.259259259259" width="7.4074074074074" height="16" fill="rgb(103, 107, 111)"></rect> 
<rect x="66.666666666667" width="7.4074074074074" height="16" fill="rgb(123, 127, 139)"></rect> 
<rect x="74.074074074074" width="7.4074074074074" height="16" fill="rgb(75, 75, 255)"></rect> 
<rect x="81.481481481481" width="7.4074074074074" height="16" fill="rgb(238, 102, 102)"></rect> 
<rect x="88.888888888889" width="7.4074074074074" height="16" fill="rgb(247, 116, 131)"></rect> 
<rect x="96.296296296296" width="7.4074074074074" height="16" fill="rgb(255, 169, 77)"></rect> 
<rect x="103.7037037037" width="7.4074074074074" height="16" fill="rgb(105, 255, 148)"></rect> 
<rect x="111.11111111111" width="7.4074074074074" height="16" fill="rgb(15, 255, 255)"></rect> 
<rect x="118.51851851852" width="7.4074074074074" height="16" fill="rgb(255, 15, 255)"></rect> 
<rect x="125.92592592593" width="7.4074074074074" height="16" fill="rgb(247, 201, 92)"></rect> 
<rect x="133.33333333333" width="7.4074074074074" height="16" fill="rgb(229, 138, 201)"></rect> 
<rect x="140.74074074074" width="7.4074074074074" height="16" fill="rgb(191, 158, 238)"></rect> 
<rect x="148.14814814815" width="7.4074074074074" height="16" fill="rgb(128, 229, 255)"></rect> 
<rect x="155.55555555556" width="7.4074074074074" height="16" fill="rgb(151, 225, 241)"></rect> 
<rect x="162.96296296296" width="7.4074074074074" height="16" fill="rgb(147, 221, 250)"></rect> 
<rect x="170.37037037037" width="7.4074074074074" height="16" fill="rgb(225, 225, 230)"></rect> 
<rect x="177.77777777778" width="7.4074074074074" height="16" fill="rgb(221, 222, 238)"></rect> 
<rect x="185.18518518519" width="7.4074074074074" height="16" fill="rgb(246, 246, 224)"></rect> 
<rect x="192.59259259259" width="7.4074074074074" height="16" fill="rgb(255, 255, 240)"></rect> 
</svg>