<svg xmlns="http://www.w3.org/2000/svg" xmlns:xlink="http://www.w3.org/1999/xlink" width="200" height="16" shape-rendering="crispEdges"> 
<rect x="0.0" width="8.695652173913" height="16" fill="rgb(30, 30, 30)"></rect> 
<rect x="8.695652173913" width="8.695652173913" height="16" fill="rgb(30, 30, 33)"></rect> 
<rect x="17.391304347826" width="8.695652173913" height="16" fill="rgb(34, 34, 38)"></rect> 
<rect x="26.086956521739" width="8.695652173913" height="16" fill="rgb(37, 37, 40)"></rect> 
<rect x="34.782608695652" width="8.695652173913" height="16" fill="rgb(43, 43, 47)"></rect> 
<rect x="43.478260869565" width="8.695652173913" height="16" fill="rgb(49, 49, 54)"></rect> 
<rect x="52.173913043478" width="8.695652173913" height="16" fill="rgb(38, 79, 120)"></rect> 
<rect x="60.869565217391" width="8.695652173913" height="16" fill="rgb(204, 102, 0)"></rect> 
<rect x="69.565217391304" width="8.695652173913" height="16" fill="rgb(113, 113, 113)"></rect> 
<rect x="78.260869565217" width="8.695652173913" height="16" fill="rgb(125, 125, 139)"></rect> 
<rect x="86.95652173913" width="8.695652173913" height="16" fill="rgb(0, 151, 251)"></rect> 
<rect x="95.652173913043" width="8.695652173913" height="16" fill="rgb(224, 108, 117)"></rect> 
<rect x="104.34782608696" width="8.695652173913" height="16" fill="rgb(86, 182, 194)"></rect> 
<rect x="113.04347826087" width="8.695652173913" height="16" fill="rgb(209, 154, 102)"></rect> 
<rect x="121.73913043478" width="8.695652173913" height="16" fill="rgb(152, 195, 121)"></rect> 
<rect x="130.4347826087" width="8.695652173913" height="16" fill="rgb(97, 175, 239)"></rect> 
<rect x="139.13043478261" width="8.695652173913" height="16" fill="rgb(198, 120, 221)"></rect> 
<rect x="147.82608695652" width="8.695652173913" height="16" fill="rgb(191, 191, 191)"></rect> 
<rect x="156.52173913043" width="8.695652173913" height="16" fill="rgb(197, 197, 197)"></rect> 
<rect x="165.21739130435" width="8.695652173913" height="16" fill="rgb(198, 198, 198)"></rect> 
<rect x="173.91304347826" width="8.695652173913" height="16" fill="rgb(203, 204, 202)"></rect> 
<rect x="182.60869565217" width="8.695652173913" height="16" fill="rgb(221, 221, 221)"></rect> 
<rect x="191.30434782609" width="8.695652173913" height="16" fill="rgb(255, 255, 255)"></rect> 
</svg>