<svg xmlns="http://www.w3.org/2000/svg" xmlns:xlink="http://www.w3.org/1999/xlink" width="200" height="16" shape-rendering="crispEdges"> 
<rect x="0.0" width="9.0909090909091" height="16" fill="rgb(32, 31, 29)"></rect> 
<rect x="9.0909090909091" width="9.0909090909091" height="16" fill="rgb(0, 43, 54)"></rect> 
<rect x="18.181818181818" width="9.0909090909091" height="16" fill="rgb(46, 44, 41)"></rect> 
<rect x="27.272727272727" width="9.0909090909091" height="16" fill="rgb(62, 60, 55)"></rect> 
<rect x="36.363636363636" width="9.0909090909091" height="16" fill="rgb(76, 79, 130)"></rect> 
<rect x="45.454545454545" width="9.0909090909091" height="16" fill="rgb(133, 153, 0)"></rect> 
<rect x="54.545454545455" width="9.0909090909091" height="16" fill="rgb(203, 75, 22)"></rect> 
<rect x="63.636363636364" width="9.0909090909091" height="16" fill="rgb(204, 102, 0)"></rect> 
<rect x="72.727272727273" width="9.0909090909091" height="16" fill="rgb(181, 137, 0)"></rect> 
<rect x="81.818181818182" width="9.0909090909091" height="16" fill="rgb(117, 114, 106)"></rect> 
<rect x="90.909090909091" width="9.0909090909091" height="16" fill="rgb(125, 121, 113)"></rect> 
<rect x="100.0" width="9.0909090909091" height="16" fill="rgb(38, 139, 210)"></rect> 
<rect x="109.09090909091" width="9.0909090909091" height="16" fill="rgb(211, 54, 130)"></rect> 
<rect x="118.18181818182" width="9.0909090909091" height="16" fill="rgb(108, 113, 196)"></rect> 
<rect x="127.27272727273" width="9.0909090909091" height="16" fill="rgb(157, 153, 136)"></rect> 
<rect x="136.36363636364" width="9.0909090909091" height="16" fill="rgb(147, 161, 161)"></rect> 
<rect x="145.45454545455" width="9.0909090909091" height="16" fill="rgb(191, 185, 173)"></rect> 
<rect x="154.54545454545" width="9.0909090909091" height="16" fill="rgb(224, 219, 200)"></rect> 
<rect x="163.63636363636" width="9.0909090909091" height="16" fill="rgb(238, 232, 213)"></rect> 
<rect x="172.72727272727" width="9.0909090909091" height="16" fill="rgb(252, 239, 205)"></rect> 
<rect x="181.81818181818" width="9.0909090909091" height="16" fill="rgb(253, 246, 227)"></rect> 
<rect x="190.90909090909" width="9.0909090909091" height="16" fill="rgb(255, 255, 255)"></rect> 
</svg>