<svg xmlns="http://www.w3.org/2000/svg" xmlns:xlink="http://www.w3.org/1999/xlink" width="200" height="16" shape-rendering="crispEdges"> 
<rect x="0.0" width="10.0" height="16" fill="rgb(32, 31, 29)"></rect> 
<rect x="10.0" width="10.0" height="16" fill="rgb(0, 43, 54)"></rect> 
<rect x="20.0" width="10.0" height="16" fill="rgb(46, 44, 41)"></rect> 
<rect x="30.0" width="10.0" height="16" fill="rgb(51, 51, 51)"></rect> 
<rect x="40.0" width="10.0" height="16" fill="rgb(62, 60, 55)"></rect> 
<rect x="50.0" width="10.0" height="16" fill="rgb(76, 79, 130)"></rect> 
<rect x="60.0" width="10.0" height="16" fill="rgb(133, 153, 0)"></rect> 
<rect x="70.0" width="10.0" height="16" fill="rgb(203, 75, 22)"></rect> 
<rect x="80.0" width="10.0" height="16" fill="rgb(181, 137, 0)"></rect> 
<rect x="90.0" width="10.0" height="16" fill="rgb(38, 139, 210)"></rect> 
<rect x="100.0" width="10.0" height="16" fill="rgb(211, 54, 130)"></rect> 
<rect x="110.0" width="10.0" height="16" fill="rgb(108, 113, 196)"></rect> 
<rect x="120.0" width="10.0" height="16" fill="rgb(157, 153, 136)"></rect> 
<rect x="130.0" width="10.0" height="16" fill="rgb(240, 187, 40)"></rect> 
<rect x="140.0" width="10.0" height="16" fill="rgb(147, 161, 161)"></rect> 
<rect x="150.0" width="10.0" height="16" fill="rgb(178, 173, 161)"></rect> 
<rect x="160.0" width="10.0" height="16" fill="rgb(224, 219, 200)"></rect> 
<rect x="170.0" width="10.0" height="16" fill="rgb(238, 232, 213)"></rect> 
<rect x="180.0" width="10.0" height="16" fill="rgb(252, 239, 205)"></rect> 
<rect x="190.0" width="10.0" height="16" fill="rgb(253, 246, 227)"></rect> 
</svg>