<svg xmlns="http://www.w3.org/2000/svg" xmlns:xlink="http://www.w3.org/1999/xlink" width="200" height="16" shape-rendering="crispEdges"> 
<rect x="0.0" width="10.0" height="16" fill="rgb(23, 21, 33)"></rect> 
<rect x="10.0" width="10.0" height="16" fill="rgb(25, 24, 36)"></rect> 
<rect x="20.0" width="10.0" height="16" fill="rgb(37, 35, 54)"></rect> 
<rect x="30.0" width="10.0" height="16" fill="rgb(45, 40, 63)"></rect> 
<rect x="40.0" width="10.0" height="16" fill="rgb(74, 68, 90)"></rect> 
<rect x="50.0" width="10.0" height="16" fill="rgb(79, 82, 107)"></rect> 
<rect x="60.0" width="10.0" height="16" fill="rgb(113, 115, 130)"></rect> 
<rect x="70.0" width="10.0" height="16" fill="rgb(59, 109, 217)"></rect> 
<rect x="80.0" width="10.0" height="16" fill="rgb(247, 63, 81)"></rect> 
<rect x="90.0" width="10.0" height="16" fill="rgb(255, 139, 57)"></rect> 
<rect x="100.0" width="10.0" height="16" fill="rgb(148, 132, 189)"></rect> 
<rect x="110.0" width="10.0" height="16" fill="rgb(241, 126, 110)"></rect> 
<rect x="120.0" width="10.0" height="16" fill="rgb(160, 166, 214)"></rect> 
<rect x="130.0" width="10.0" height="16" fill="rgb(245, 222, 74)"></rect> 
<rect x="140.0" width="10.0" height="16" fill="rgb(90, 250, 210)"></rect> 
<rect x="150.0" width="10.0" height="16" fill="rgb(255, 121, 198)"></rect> 
<rect x="160.0" width="10.0" height="16" fill="rgb(189, 147, 249)"></rect> 
<rect x="170.0" width="10.0" height="16" fill="rgb(139, 233, 253)"></rect> 
<rect x="180.0" width="10.0" height="16" fill="rgb(245, 245, 245)"></rect> 
<rect x="190.0" width="10.0" height="16" fill="rgb(255, 255, 255)"></rect> 
</svg>