<svg xmlns="http://www.w3.org/2000/svg" xmlns:xlink="http://www.w3.org/1999/xlink" width="200" height="16" shape-rendering="crispEdges"> 
<rect x="0.0" width="8.0" height="16" fill="rgb(16, 16, 20)"></rect> 
<rect x="8.0" width="8.0" height="16" fill="rgb(22, 22, 30)"></rect> 
<rect x="16.0" width="8.0" height="16" fill="rgb(26, 27, 38)"></rect> 
<rect x="24.0" width="8.0" height="16" fill="rgb(30, 32, 46)"></rect> 
<rect x="32.0" width="8.0" height="16" fill="rgb(37, 39, 56)"></rect> 
<rect x="40.0" width="8.0" height="16" fill="rgb(36, 40, 59)"></rect> 
<rect x="48.0" width="8.0" height="16" fill="rgb(40, 43, 60)"></rect> 
<rect x="56.0" width="8.0" height="16" fill="rgb(54, 59, 84)"></rect> 
<rect x="64.0" width="8.0" height="16" fill="rgb(163, 22, 48)"></rect> 
<rect x="72.0" width="8.0" height="16" fill="rgb(65, 72, 104)"></rect> 
<rect x="80.0" width="8.0" height="16" fill="rgb(86, 95, 137)"></rect> 
<rect x="88.0" width="8.0" height="16" fill="rgb(103, 107, 152)"></rect> 
<rect x="96.0" width="8.0" height="16" fill="rgb(115, 122, 162)"></rect> 
<rect x="104.0" width="8.0" height="16" fill="rgb(42, 195, 222)"></rect> 
<rect x="112.0" width="8.0" height="16" fill="rgb(158, 206, 106)"></rect> 
<rect x="120.0" width="8.0" height="16" fill="rgb(224, 175, 104)"></rect> 
<rect x="128.0" width="8.0" height="16" fill="rgb(247, 118, 142)"></rect> 
<rect x="136.0" width="8.0" height="16" fill="rgb(109, 179, 221)"></rect> 
<rect x="144.0" width="8.0" height="16" fill="rgb(255, 158, 100)"></rect> 
<rect x="152.0" width="8.0" height="16" fill="rgb(122, 162, 247)"></rect> 
<rect x="160.0" width="8.0" height="16" fill="rgb(169, 177, 214)"></rect> 
<rect x="168.0" width="8.0" height="16" fill="rgb(154, 189, 245)"></rect> 
<rect x="176.0" width="8.0" height="16" fill="rgb(187, 154, 247)"></rect> 
<rect x="184.0" width="8.0" height="16" fill="rgb(192, 202, 245)"></rect> 
<rect x="192.0" width="8.0" height="16" fill="rgb(240, 240, 245)"></rect> 
</svg>