<svg xmlns="http://www.w3.org/2000/svg" xmlns:xlink="http://www.w3.org/1999/xlink" width="200" height="16" shape-rendering="crispEdges"> 
<rect x="0.0" width="9.0909090909091" height="16" fill="rgb(16, 16, 20)"></rect> 
<rect x="9.0909090909091" width="9.0909090909091" height="16" fill="rgb(22, 22, 30)"></rect> 
<rect x="18.181818181818" width="9.0909090909091" height="16" fill="rgb(26, 27, 38)"></rect> 
<rect x="27.272727272727" width="9.0909090909091" height="16" fill="rgb(30, 32, 46)"></rect> 
<rect x="36.363636363636" width="9.0909090909091" height="16" fill="rgb(37, 39, 56)"></rect> 
<rect x="45.454545454545" width="9.0909090909091" height="16" fill="rgb(36, 40, 59)"></rect> 
<rect x="54.545454545455" width="9.0909090909091" height="16" fill="rgb(40, 43, 60)"></rect> 
<rect x="63.636363636364" width="9.0909090909091" height="16" fill="rgb(54, 59, 84)"></rect> 
<rect x="72.727272727273" width="9.0909090909091" height="16" fill="rgb(65, 72, 104)"></rect> 
<rect x="81.818181818182" width="9.0909090909091" height="16" fill="rgb(86, 95, 137)"></rect> 
<rect x="90.909090909091" width="9.0909090909091" height="16" fill="rgb(115, 122, 162)"></rect> 
<rect x="100.0" width="9.0909090909091" height="16" fill="rgb(42, 195, 222)"></rect> 
<rect x="109.09090909091" width="9.0909090909091" height="16" fill="rgb(158, 206, 106)"></rect> 
<rect x="118.18181818182" width="9.0909090909091" height="16" fill="rgb(224, 175, 104)"></rect> 
<rect x="127.27272727273" width="9.0909090909091" height="16" fill="rgb(247, 118, 142)"></rect> 
<rect x="136.36363636364" width="9.0909090909091" height="16" fill="rgb(109, 179, 221)"></rect> 
<rect x="145.45454545455" width="9.0909090909091" height="16" fill="rgb(255, 158, 100)"></rect> 
<rect x="154.54545454545" width="9.0909090909091" height="16" fill="rgb(122, 162, 247)"></rect> 
<rect x="163.63636363636" width="9.0909090909091" height="16" fill="rgb(169, 177, 214)"></rect> 
<rect x="172.72727272727" width="9.0909090909091" height="16" fill="rgb(187, 154, 247)"></rect> 
<rect x="181.81818181818" width="9.0909090909091" height="16" fill="rgb(154, 189, 245)"></rect> 
<rect x="190.90909090909" width="9.0909090909091" height="16" fill="rgb(192, 202, 245)"></rect> 
</svg>