<svg xmlns="http://www.w3.org/2000/svg" xmlns:xlink="http://www.w3.org/1999/xlink" width="200" height="16" shape-rendering="crispEdges"> 
<rect x="0.0" width="7.1428571428571" height="16" fill="rgb(16, 16, 20)"></rect> 
<rect x="7.1428571428571" width="7.1428571428571" height="16" fill="rgb(22, 22, 30)"></rect> 
<rect x="14.285714285714" width="7.1428571428571" height="16" fill="rgb(26, 27, 38)"></rect> 
<rect x="21.428571428571" width="7.1428571428571" height="16" fill="rgb(27, 30, 44)"></rect> 
<rect x="28.571428571429" width="7.1428571428571" height="16" fill="rgb(37, 39, 56)"></rect> 
<rect x="35.714285714286" width="7.1428571428571" height="16" fill="rgb(36, 40, 59)"></rect> 
<rect x="42.857142857143" width="7.1428571428571" height="16" fill="rgb(40, 43, 60)"></rect> 
<rect x="50.0" width="7.1428571428571" height="16" fill="rgb(40, 43, 61)"></rect> 
<rect x="57.142857142857" width="7.1428571428571" height="16" fill="rgb(54, 59, 84)"></rect> 
<rect x="64.285714285714" width="7.1428571428571" height="16" fill="rgb(163, 22, 48)"></rect> 
<rect x="71.428571428571" width="7.1428571428571" height="16" fill="rgb(65, 72, 104)"></rect> 
<rect x="78.571428571429" width="7.1428571428571" height="16" fill="rgb(204, 102, 0)"></rect> 
<rect x="85.714285714286" width="7.1428571428571" height="16" fill="rgb(86, 95, 137)"></rect> 
<rect x="92.857142857143" width="7.1428571428571" height="16" fill="rgb(115, 122, 162)"></rect> 
<rect x="100.0" width="7.1428571428571" height="16" fill="rgb(42, 195, 222)"></rect> 
<rect x="107.14285714286" width="7.1428571428571" height="16" fill="rgb(158, 206, 106)"></rect> 
<rect x="114.28571428571" width="7.1428571428571" height="16" fill="rgb(224, 175, 104)"></rect> 
<rect x="121.42857142857" width="7.1428571428571" height="16" fill="rgb(247, 118, 142)"></rect> 
<rect x="128.57142857143" width="7.1428571428571" height="16" fill="rgb(109, 179, 221)"></rect> 
<rect x="135.71428571429" width="7.1428571428571" height="16" fill="rgb(255, 158, 100)"></rect> 
<rect x="142.85714285714" width="7.1428571428571" height="16" fill="rgb(122, 162, 247)"></rect> 
<rect x="150.0" width="7.1428571428571" height="16" fill="rgb(169, 177, 214)"></rect> 
<rect x="157.14285714286" width="7.1428571428571" height="16" fill="rgb(177, 185, 224)"></rect> 
<rect x="164.28571428571" width="7.1428571428571" height="16" fill="rgb(187, 154, 247)"></rect> 
<rect x="171.42857142857" width="7.1428571428571" height="16" fill="rgb(154, 189, 245)"></rect> 
<rect x="178.57142857143" width="7.1428571428571" height="16" fill="rgb(181, 189, 229)"></rect> 
<rect x="185.71428571429" width="7.1428571428571" height="16" fill="rgb(192, 202, 245)"></rect> 
<rect x="192.85714285714" width="7.1428571428571" height="16" fill="rgb(255, 255, 255)"></rect> 
</svg>