<svg xmlns="http://www.w3.org/2000/svg" xmlns:xlink="http://www.w3.org/1999/xlink" width="200" height="16" shape-rendering="crispEdges"> 
<rect x="0.0" width="8.695652173913" height="16" fill="rgb(16, 16, 20)"></rect> 
<rect x="8.695652173913" width="8.695652173913" height="16" fill="rgb(22, 22, 30)"></rect> 
<rect x="17.391304347826" width="8.695652173913" height="16" fill="rgb(26, 27, 38)"></rect> 
<rect x="26.086956521739" width="8.695652173913" height="16" fill="rgb(30, 32, 46)"></rect> 
<rect x="34.782608695652" width="8.695652173913" height="16" fill="rgb(37, 39, 56)"></rect> 
<rect x="43.478260869565" width="8.695652173913" height="16" fill="rgb(36, 40, 59)"></rect> 
<rect x="52.173913043478" width="8.695652173913" height="16" fill="rgb(40, 43, 60)"></rect> 
<rect x="60.869565217391" width="8.695652173913" height="16" fill="rgb(54, 59, 84)"></rect> 
<rect x="69.565217391304" width="8.695652173913" height="16" fill="rgb(163, 22, 48)"></rect> 
<rect x="78.260869565217" width="8.695652173913" height="16" fill="rgb(65, 72, 104)"></rect> 
<rect x="86.95652173913" width="8.695652173913" height="16" fill="rgb(86, 95, 137)"></rect> 
<rect x="95.652173913043" width="8.695652173913" height="16" fill="rgb(115, 122, 162)"></rect> 
<rect x="104.34782608696" width="8.695652173913" height="16" fill="rgb(42, 195, 222)"></rect> 
<rect x="113.04347826087" width="8.695652173913" height="16" fill="rgb(158, 206, 106)"></rect> 
<rect x="121.73913043478" width="8.695652173913" height="16" fill="rgb(224, 175, 104)"></rect> 
<rect x="130.4347826087" width="8.695652173913" height="16" fill="rgb(247, 118, 142)"></rect> 
<rect x="139.13043478261" width="8.695652173913" height="16" fill="rgb(109, 179, 221)"></rect> 
<rect x="147.82608695652" width="8.695652173913" height="16" fill="rgb(255, 158, 100)"></rect> 
<rect x="156.52173913043" width="8.695652173913" height="16" fill="rgb(122, 162, 247)"></rect> 
<rect x="165.21739130435" width="8.695652173913" height="16" fill="rgb(169, 177, 214)"></rect> 
<rect x="173.91304347826" width="8.695652173913" height="16" fill="rgb(154, 189, 245)"></rect> 
<rect x="182.60869565217" width="8.695652173913" height="16" fill="rgb(187, 154, 247)"></rect> 
<rect x="191.30434782609" width="8.695652173913" height="16" fill="rgb(192, 202, 245)"></rect> 
</svg>