<svg xmlns="http://www.w3.org/2000/svg" xmlns:xlink="http://www.w3.org/1999/xlink" width="200" height="16" shape-rendering="crispEdges"> 
<rect x="0.0" width="10.0" height="16" fill="rgb(30, 30, 30)"></rect> 
<rect x="10.0" width="10.0" height="16" fill="rgb(37, 37, 38)"></rect> 
<rect x="20.0" width="10.0" height="16" fill="rgb(51, 58, 64)"></rect> 
<rect x="30.0" width="10.0" height="16" fill="rgb(64, 64, 64)"></rect> 
<rect x="40.0" width="10.0" height="16" fill="rgb(38, 79, 120)"></rect> 
<rect x="50.0" width="10.0" height="16" fill="rgb(184, 149, 0)"></rect> 
<rect x="60.0" width="10.0" height="16" fill="rgb(112, 112, 112)"></rect> 
<rect x="70.0" width="10.0" height="16" fill="rgb(106, 153, 85)"></rect> 
<rect x="80.0" width="10.0" height="16" fill="rgb(122, 122, 122)"></rect> 
<rect x="90.0" width="10.0" height="16" fill="rgb(106, 90, 205)"></rect> 
<rect x="100.0" width="10.0" height="16" fill="rgb(86, 156, 214)"></rect> 
<rect x="110.0" width="10.0" height="16" fill="rgb(206, 145, 120)"></rect> 
<rect x="120.0" width="10.0" height="16" fill="rgb(160, 160, 160)"></rect> 
<rect x="130.0" width="10.0" height="16" fill="rgb(154, 167, 191)"></rect> 
<rect x="140.0" width="10.0" height="16" fill="rgb(197, 134, 192)"></rect> 
<rect x="150.0" width="10.0" height="16" fill="rgb(181, 206, 168)"></rect> 
<rect x="160.0" width="10.0" height="16" fill="rgb(118, 188, 255)"></rect> 
<rect x="170.0" width="10.0" height="16" fill="rgb(220, 220, 170)"></rect> 
<rect x="180.0" width="10.0" height="16" fill="rgb(212, 212, 212)"></rect> 
<rect x="190.0" width="10.0" height="16" fill="rgb(255, 255, 255)"></rect> 
</svg>