<svg xmlns="http://www.w3.org/2000/svg" xmlns:xlink="http://www.w3.org/1999/xlink" width="200" height="16" shape-rendering="crispEdges"> 
<rect x="0.0" width="9.5238095238095" height="16" fill="rgb(30, 30, 30)"></rect> 
<rect x="9.5238095238095" width="9.5238095238095" height="16" fill="rgb(37, 37, 38)"></rect> 
<rect x="19.047619047619" width="9.5238095238095" height="16" fill="rgb(51, 58, 64)"></rect> 
<rect x="28.571428571429" width="9.5238095238095" height="16" fill="rgb(64, 64, 64)"></rect> 
<rect x="38.095238095238" width="9.5238095238095" height="16" fill="rgb(38, 79, 120)"></rect> 
<rect x="47.619047619048" width="9.5238095238095" height="16" fill="rgb(184, 149, 0)"></rect> 
<rect x="57.142857142857" width="9.5238095238095" height="16" fill="rgb(112, 112, 112)"></rect> 
<rect x="66.666666666667" width="9.5238095238095" height="16" fill="rgb(106, 153, 85)"></rect> 
<rect x="76.190476190476" width="9.5238095238095" height="16" fill="rgb(103, 107, 152)"></rect> 
<rect x="85.714285714286" width="9.5238095238095" height="16" fill="rgb(122, 122, 122)"></rect> 
<rect x="95.238095238095" width="9.5238095238095" height="16" fill="rgb(133, 144, 165)"></rect> 
<rect x="104.7619047619" width="9.5238095238095" height="16" fill="rgb(86, 156, 214)"></rect> 
<rect x="114.28571428571" width="9.5238095238095" height="16" fill="rgb(206, 145, 120)"></rect> 
<rect x="123.80952380952" width="9.5238095238095" height="16" fill="rgb(160, 160, 160)"></rect> 
<rect x="133.33333333333" width="9.5238095238095" height="16" fill="rgb(197, 134, 192)"></rect> 
<rect x="142.85714285714" width="9.5238095238095" height="16" fill="rgb(181, 206, 168)"></rect> 
<rect x="152.38095238095" width="9.5238095238095" height="16" fill="rgb(118, 188, 255)"></rect> 
<rect x="161.90476190476" width="9.5238095238095" height="16" fill="rgb(220, 220, 170)"></rect> 
<rect x="171.42857142857" width="9.5238095238095" height="16" fill="rgb(212, 212, 212)"></rect> 
<rect x="180.95238095238" width="9.5238095238095" height="16" fill="rgb(240, 240, 245)"></rect> 
<rect x="190.47619047619" width="9.5238095238095" height="16" fill="rgb(255, 255, 255)"></rect> 
</svg>