<svg xmlns="http://www.w3.org/2000/svg" xmlns:xlink="http://www.w3.org/1999/xlink" width="200" height="16" shape-rendering="crispEdges"> 
<rect x="0.0" width="4.3478260869565" height="16" fill="rgb(0, 0, 0)"></rect> 
<rect x="4.3478260869565" width="4.3478260869565" height="16" fill="rgb(44, 0, 30)"></rect> 
<rect x="8.695652173913" width="4.3478260869565" height="16" fill="rgb(36, 31, 49)"></rect> 
<rect x="13.04347826087" width="4.3478260869565" height="16" fill="rgb(14, 132, 32)"></rect> 
<rect x="17.391304347826" width="4.3478260869565" height="16" fill="rgb(61, 56, 70)"></rect> 
<rect x="21.739130434783" width="4.3478260869565" height="16" fill="rgb(94, 39, 80)"></rect> 
<rect x="26.086956521739" width="4.3478260869565" height="16" fill="rgb(169, 18, 36)"></rect> 
<rect x="30.434782608696" width="4.3478260869565" height="16" fill="rgb(80, 78, 85)"></rect> 
<rect x="34.782608695652" width="4.3478260869565" height="16" fill="rgb(33, 158, 52)"></rect> 
<rect x="39.130434782609" width="4.3478260869565" height="16" fill="rgb(51, 82, 128)"></rect> 
<rect x="43.478260869565" width="4.3478260869565" height="16" fill="rgb(119, 33, 111)"></rect> 
<rect x="47.826086956522" width="4.3478260869565" height="16" fill="rgb(199, 22, 43)"></rect> 
<rect x="52.173913043478" width="4.3478260869565" height="16" fill="rgb(94, 92, 100)"></rect> 
<rect x="56.521739130435" width="4.3478260869565" height="16" fill="rgb(0, 122, 166)"></rect> 
<rect x="60.869565217391" width="4.3478260869565" height="16" fill="rgb(52, 185, 72)"></rect> 
<rect x="65.217391304348" width="4.3478260869565" height="16" fill="rgb(211, 39, 59)"></rect> 
<rect x="69.565217391304" width="4.3478260869565" height="16" fill="rgb(233, 84, 32)"></rect> 
<rect x="73.913043478261" width="4.3478260869565" height="16" fill="rgb(222, 55, 76)"></rect> 
<rect x="78.260869565217" width="4.3478260869565" height="16" fill="rgb(119, 118, 123)"></rect> 
<rect x="82.608695652174" width="4.3478260869565" height="16" fill="rgb(103, 107, 152)"></rect> 
<rect x="86.95652173913" width="4.3478260869565" height="16" fill="rgb(71, 211, 92)"></rect> 
<rect x="91.304347826087" width="4.3478260869565" height="16" fill="rgb(235, 101, 54)"></rect> 
<rect x="95.652173913043" width="4.3478260869565" height="16" fill="rgb(234, 72, 92)"></rect> 
<rect x="100.0" width="4.3478260869565" height="16" fill="rgb(249, 155, 17)"></rect> 
<rect x="104.34782608696" width="4.3478260869565" height="16" fill="rgb(237, 118, 77)"></rect> 
<rect x="108.69565217391" width="4.3478260869565" height="16" fill="rgb(90, 237, 112)"></rect> 
<rect x="113.04347826087" width="4.3478260869565" height="16" fill="rgb(25, 182, 238)"></rect> 
<rect x="117.39130434783" width="4.3478260869565" height="16" fill="rgb(154, 153, 150)"></rect> 
<rect x="121.73913043478" width="4.3478260869565" height="16" fill="rgb(250, 168, 47)"></rect> 
<rect x="126.08695652174" width="4.3478260869565" height="16" fill="rgb(240, 135, 99)"></rect> 
<rect x="130.4347826087" width="4.3478260869565" height="16" fill="rgb(183, 118, 176)"></rect> 
<rect x="134.78260869565" width="4.3478260869565" height="16" fill="rgb(251, 180, 76)"></rect> 
<rect x="139.13043478261" width="4.3478260869565" height="16" fill="rgb(71, 196, 241)"></rect> 
<rect x="143.47826086957" width="4.3478260869565" height="16" fill="rgb(242, 152, 121)"></rect> 
<rect x="147.82608695652" width="4.3478260869565" height="16" fill="rgb(176, 175, 172)"></rect> 
<rect x="152.17391304348" width="4.3478260869565" height="16" fill="rgb(197, 144, 191)"></rect> 
<rect x="156.52173913043" width="4.3478260869565" height="16" fill="rgb(251, 193, 106)"></rect> 
<rect x="160.86956521739" width="4.3478260869565" height="16" fill="rgb(192, 191, 188)"></rect> 
<rect x="165.21739130435" width="4.3478260869565" height="16" fill="rgb(117, 211, 244)"></rect> 
<rect x="169.5652173913" width="4.3478260869565" height="16" fill="rgb(252, 205, 135)"></rect> 
<rect x="173.91304347826" width="4.3478260869565" height="16" fill="rgb(209, 208, 205)"></rect> 
<rect x="178.26086956522" width="4.3478260869565" height="16" fill="rgb(222, 221, 218)"></rect> 
<rect x="182.60869565217" width="4.3478260869565" height="16" fill="rgb(240, 240, 245)"></rect> 
<rect x="186.95652173913" width="4.3478260869565" height="16" fill="rgb(246, 245, 244)"></rect> 
<rect x="191.30434782609" width="4.3478260869565" height="16" fill="rgb(252, 252, 252)"></rect> 
<rect x="195.65217391304" width="4.3478260869565" height="16" fill="rgb(255, 255, 255)"></rect> 
</svg>