<svg xmlns="http://www.w3.org/2000/svg" xmlns:xlink="http://www.w3.org/1999/xlink" width="200" height="16" shape-rendering="crispEdges"> 
<rect x="0.0" width="3.8461538461538" height="16" fill="rgb(0, 0, 0)"></rect> 
<rect x="3.8461538461538" width="3.8461538461538" height="16" fill="rgb(24, 24, 24)"></rect> 
<rect x="7.6923076923077" width="3.8461538461538" height="16" fill="rgb(44, 0, 30)"></rect> 
<rect x="11.538461538462" width="3.8461538461538" height="16" fill="rgb(34, 34, 34)"></rect> 
<rect x="15.384615384615" width="3.8461538461538" height="16" fill="rgb(38, 38, 38)"></rect> 
<rect x="19.230769230769" width="3.8461538461538" height="16" fill="rgb(36, 31, 49)"></rect> 
<rect x="23.076923076923" width="3.8461538461538" height="16" fill="rgb(44, 44, 44)"></rect> 
<rect x="26.923076923077" width="3.8461538461538" height="16" fill="rgb(48, 48, 48)"></rect> 
<rect x="30.769230769231" width="3.8461538461538" height="16" fill="rgb(14, 132, 32)"></rect> 
<rect x="34.615384615385" width="3.8461538461538" height="16" fill="rgb(59, 58, 63)"></rect> 
<rect x="38.461538461538" width="3.8461538461538" height="16" fill="rgb(61, 56, 70)"></rect> 
<rect x="42.307692307692" width="3.8461538461538" height="16" fill="rgb(66, 66, 66)"></rect> 
<rect x="46.153846153846" width="3.8461538461538" height="16" fill="rgb(94, 39, 80)"></rect> 
<rect x="50.0" width="3.8461538461538" height="16" fill="rgb(169, 18, 36)"></rect> 
<rect x="53.846153846154" width="3.8461538461538" height="16" fill="rgb(33, 158, 52)"></rect> 
<rect x="57.692307692308" width="3.8461538461538" height="16" fill="rgb(80, 78, 85)"></rect> 
<rect x="61.538461538462" width="3.8461538461538" height="16" fill="rgb(51, 82, 128)"></rect> 
<rect x="65.384615384615" width="3.8461538461538" height="16" fill="rgb(119, 33, 111)"></rect> 
<rect x="69.230769230769" width="3.8461538461538" height="16" fill="rgb(199, 22, 43)"></rect> 
<rect x="73.076923076923" width="3.8461538461538" height="16" fill="rgb(94, 92, 100)"></rect> 
<rect x="76.923076923077" width="3.8461538461538" height="16" fill="rgb(0, 122, 166)"></rect> 
<rect x="80.769230769231" width="3.8461538461538" height="16" fill="rgb(52, 185, 72)"></rect> 
<rect x="84.615384615385" width="3.8461538461538" height="16" fill="rgb(211, 39, 59)"></rect> 
<rect x="88.461538461538" width="3.8461538461538" height="16" fill="rgb(233, 84, 32)"></rect> 
<rect x="92.307692307692" width="3.8461538461538" height="16" fill="rgb(222, 55, 76)"></rect> 
<rect x="96.153846153846" width="3.8461538461538" height="16" fill="rgb(119, 118, 123)"></rect> 
<rect x="100.0" width="3.8461538461538" height="16" fill="rgb(71, 211, 92)"></rect> 
<rect x="103.84615384615" width="3.8461538461538" height="16" fill="rgb(235, 101, 54)"></rect> 
<rect x="107.69230769231" width="3.8461538461538" height="16" fill="rgb(234, 72, 92)"></rect> 
<rect x="111.53846153846" width="3.8461538461538" height="16" fill="rgb(249, 155, 17)"></rect> 
<rect x="115.38461538462" width="3.8461538461538" height="16" fill="rgb(141, 141, 141)"></rect> 
<rect x="119.23076923077" width="3.8461538461538" height="16" fill="rgb(237, 118, 77)"></rect> 
<rect x="123.07692307692" width="3.8461538461538" height="16" fill="rgb(90, 237, 112)"></rect> 
<rect x="126.92307692308" width="3.8461538461538" height="16" fill="rgb(25, 182, 238)"></rect> 
<rect x="130.76923076923" width="3.8461538461538" height="16" fill="rgb(154, 153, 150)"></rect> 
<rect x="134.61538461538" width="3.8461538461538" height="16" fill="rgb(250, 168, 47)"></rect> 
<rect x="138.46153846154" width="3.8461538461538" height="16" fill="rgb(240, 135, 99)"></rect> 
<rect x="142.30769230769" width="3.8461538461538" height="16" fill="rgb(183, 118, 176)"></rect> 
<rect x="146.15384615385" width="3.8461538461538" height="16" fill="rgb(251, 180, 76)"></rect> 
<rect x="150.0" width="3.8461538461538" height="16" fill="rgb(71, 196, 241)"></rect> 
<rect x="153.84615384615" width="3.8461538461538" height="16" fill="rgb(242, 152, 121)"></rect> 
<rect x="157.69230769231" width="3.8461538461538" height="16" fill="rgb(173, 173, 173)"></rect> 
<rect x="161.53846153846" width="3.8461538461538" height="16" fill="rgb(176, 175, 172)"></rect> 
<rect x="165.38461538462" width="3.8461538461538" height="16" fill="rgb(197, 144, 191)"></rect> 
<rect x="169.23076923077" width="3.8461538461538" height="16" fill="rgb(251, 193, 106)"></rect> 
<rect x="173.07692307692" width="3.8461538461538" height="16" fill="rgb(192, 191, 188)"></rect> 
<rect x="176.92307692308" width="3.8461538461538" height="16" fill="rgb(117, 211, 244)"></rect> 
<rect x="180.76923076923" width="3.8461538461538" height="16" fill="rgb(252, 205, 135)"></rect> 
<rect x="184.61538461538" width="3.8461538461538" height="16" fill="rgb(222, 221, 218)"></rect> 
<rect x="188.46153846154" width="3.8461538461538" height="16" fill="rgb(246, 245, 244)"></rect> 
<rect x="192.30769230769" width="3.8461538461538" height="16" fill="rgb(252, 252, 252)"></rect> 
<rect x="196.15384615385" width="3.8461538461538" height="16" fill="rgb(255, 255, 255)"></rect> 
</svg>