<svg xmlns="http://www.w3.org/2000/svg" xmlns:xlink="http://www.w3.org/1999/xlink" width="200" height="16" shape-rendering="crispEdges"> 
<rect x="0.0" width="3.7037037037037" height="16" fill="rgb(0, 0, 0)"></rect> 
<rect x="3.7037037037037" width="3.7037037037037" height="16" fill="rgb(24, 24, 24)"></rect> 
<rect x="7.4074074074074" width="3.7037037037037" height="16" fill="rgb(44, 0, 30)"></rect> 
<rect x="11.111111111111" width="3.7037037037037" height="16" fill="rgb(34, 34, 34)"></rect> 
<rect x="14.814814814815" width="3.7037037037037" height="16" fill="rgb(38, 38, 38)"></rect> 
<rect x="18.518518518519" width="3.7037037037037" height="16" fill="rgb(36, 31, 49)"></rect> 
<rect x="22.222222222222" width="3.7037037037037" height="16" fill="rgb(44, 44, 44)"></rect> 
<rect x="25.925925925926" width="3.7037037037037" height="16" fill="rgb(48, 48, 48)"></rect> 
<rect x="29.62962962963" width="3.7037037037037" height="16" fill="rgb(14, 132, 32)"></rect> 
<rect x="33.333333333333" width="3.7037037037037" height="16" fill="rgb(59, 58, 63)"></rect> 
<rect x="37.037037037037" width="3.7037037037037" height="16" fill="rgb(61, 56, 70)"></rect> 
<rect x="40.740740740741" width="3.7037037037037" height="16" fill="rgb(66, 66, 66)"></rect> 
<rect x="44.444444444444" width="3.7037037037037" height="16" fill="rgb(94, 39, 80)"></rect> 
<rect x="48.148148148148" width="3.7037037037037" height="16" fill="rgb(169, 18, 36)"></rect> 
<rect x="51.851851851852" width="3.7037037037037" height="16" fill="rgb(33, 158, 52)"></rect> 
<rect x="55.555555555556" width="3.7037037037037" height="16" fill="rgb(80, 78, 85)"></rect> 
<rect x="59.259259259259" width="3.7037037037037" height="16" fill="rgb(51, 82, 128)"></rect> 
<rect x="62.962962962963" width="3.7037037037037" height="16" fill="rgb(119, 33, 111)"></rect> 
<rect x="66.666666666667" width="3.7037037037037" height="16" fill="rgb(199, 22, 43)"></rect> 
<rect x="70.37037037037" width="3.7037037037037" height="16" fill="rgb(94, 92, 100)"></rect> 
<rect x="74.074074074074" width="3.7037037037037" height="16" fill="rgb(0, 122, 166)"></rect> 
<rect x="77.777777777778" width="3.7037037037037" height="16" fill="rgb(211, 39, 59)"></rect> 
<rect x="81.481481481481" width="3.7037037037037" height="16" fill="rgb(52, 185, 72)"></rect> 
<rect x="85.185185185185" width="3.7037037037037" height="16" fill="rgb(233, 84, 32)"></rect> 
<rect x="88.888888888889" width="3.7037037037037" height="16" fill="rgb(222, 55, 76)"></rect> 
<rect x="92.592592592593" width="3.7037037037037" height="16" fill="rgb(119, 118, 123)"></rect> 
<rect x="96.296296296296" width="3.7037037037037" height="16" fill="rgb(103, 107, 152)"></rect> 
<rect x="100.0" width="3.7037037037037" height="16" fill="rgb(71, 211, 92)"></rect> 
<rect x="103.7037037037" width="3.7037037037037" height="16" fill="rgb(235, 101, 54)"></rect> 
<rect x="107.40740740741" width="3.7037037037037" height="16" fill="rgb(234, 72, 92)"></rect> 
<rect x="111.11111111111" width="3.7037037037037" height="16" fill="rgb(249, 155, 17)"></rect> 
<rect x="114.81481481481" width="3.7037037037037" height="16" fill="rgb(141, 141, 141)"></rect> 
<rect x="118.51851851852" width="3.7037037037037" height="16" fill="rgb(237, 118, 77)"></rect> 
<rect x="122.22222222222" width="3.7037037037037" height="16" fill="rgb(90, 237, 112)"></rect> 
<rect x="125.92592592593" width="3.7037037037037" height="16" fill="rgb(25, 182, 238)"></rect> 
<rect x="129.62962962963" width="3.7037037037037" height="16" fill="rgb(154, 153, 150)"></rect> 
<rect x="133.33333333333" width="3.7037037037037" height="16" fill="rgb(250, 168, 47)"></rect> 
<rect x="137.03703703704" width="3.7037037037037" height="16" fill="rgb(240, 135, 99)"></rect> 
<rect x="140.74074074074" width="3.7037037037037" height="16" fill="rgb(183, 118, 176)"></rect> 
<rect x="144.44444444444" width="3.7037037037037" height="16" fill="rgb(251, 180, 76)"></rect> 
<rect x="148.14814814815" width="3.7037037037037" height="16" fill="rgb(71, 196, 241)"></rect> 
<rect x="151.85185185185" width="3.7037037037037" height="16" fill="rgb(242, 152, 121)"></rect> 
<rect x="155.55555555556" width="3.7037037037037" height="16" fill="rgb(173, 173, 173)"></rect> 
<rect x="159.25925925926" width="3.7037037037037" height="16" fill="rgb(176, 175, 172)"></rect> 
<rect x="162.96296296296" width="3.7037037037037" height="16" fill="rgb(197, 144, 191)"></rect> 
<rect x="166.66666666667" width="3.7037037037037" height="16" fill="rgb(251, 193, 106)"></rect> 
<rect x="170.37037037037" width="3.7037037037037" height="16" fill="rgb(192, 191, 188)"></rect> 
<rect x="174.07407407407" width="3.7037037037037" height="16" fill="rgb(117, 211, 244)"></rect> 
<rect x="177.77777777778" width="3.7037037037037" height="16" fill="rgb(252, 205, 135)"></rect> 
<rect x="181.48148148148" width="3.7037037037037" height="16" fill="rgb(222, 221, 218)"></rect> 
<rect x="185.18518518519" width="3.7037037037037" height="16" fill="rgb(240, 240, 245)"></rect> 
<rect x="188.88888888889" width="3.7037037037037" height="16" fill="rgb(246, 245, 244)"></rect> 
<rect x="192.59259259259" width="3.7037037037037" height="16" fill="rgb(252, 252, 252)"></rect> 
<rect x="196.2962962963" width="3.7037037037037" height="16" fill="rgb(255, 255, 255)"></rect> 
</svg>