<svg xmlns="http://www.w3.org/2000/svg" xmlns:xlink="http://www.w3.org/1999/xlink" width="200" height="16" shape-rendering="crispEdges"> 
<rect x="0.0" width="3.921568627451" height="16" fill="rgb(0, 0, 0)"></rect> 
<rect x="3.921568627451" width="3.921568627451" height="16" fill="rgb(24, 24, 24)"></rect> 
<rect x="7.843137254902" width="3.921568627451" height="16" fill="rgb(44, 0, 30)"></rect> 
<rect x="11.764705882353" width="3.921568627451" height="16" fill="rgb(34, 34, 34)"></rect> 
<rect x="15.686274509804" width="3.921568627451" height="16" fill="rgb(38, 38, 38)"></rect> 
<rect x="19.607843137255" width="3.921568627451" height="16" fill="rgb(36, 31, 49)"></rect> 
<rect x="23.529411764706" width="3.921568627451" height="16" fill="rgb(44, 44, 44)"></rect> 
<rect x="27.450980392157" width="3.921568627451" height="16" fill="rgb(48, 48, 48)"></rect> 
<rect x="31.372549019608" width="3.921568627451" height="16" fill="rgb(14, 132, 32)"></rect> 
<rect x="35.294117647059" width="3.921568627451" height="16" fill="rgb(61, 56, 70)"></rect> 
<rect x="39.21568627451" width="3.921568627451" height="16" fill="rgb(66, 66, 66)"></rect> 
<rect x="43.137254901961" width="3.921568627451" height="16" fill="rgb(94, 39, 80)"></rect> 
<rect x="47.058823529412" width="3.921568627451" height="16" fill="rgb(169, 18, 36)"></rect> 
<rect x="50.980392156863" width="3.921568627451" height="16" fill="rgb(80, 78, 85)"></rect> 
<rect x="54.901960784314" width="3.921568627451" height="16" fill="rgb(33, 158, 52)"></rect> 
<rect x="58.823529411765" width="3.921568627451" height="16" fill="rgb(51, 82, 128)"></rect> 
<rect x="62.745098039216" width="3.921568627451" height="16" fill="rgb(119, 33, 111)"></rect> 
<rect x="66.666666666667" width="3.921568627451" height="16" fill="rgb(199, 22, 43)"></rect> 
<rect x="70.588235294118" width="3.921568627451" height="16" fill="rgb(94, 92, 100)"></rect> 
<rect x="74.509803921569" width="3.921568627451" height="16" fill="rgb(0, 122, 166)"></rect> 
<rect x="78.43137254902" width="3.921568627451" height="16" fill="rgb(52, 185, 72)"></rect> 
<rect x="82.352941176471" width="3.921568627451" height="16" fill="rgb(211, 39, 59)"></rect> 
<rect x="86.274509803922" width="3.921568627451" height="16" fill="rgb(233, 84, 32)"></rect> 
<rect x="90.196078431373" width="3.921568627451" height="16" fill="rgb(222, 55, 76)"></rect> 
<rect x="94.117647058824" width="3.921568627451" height="16" fill="rgb(119, 118, 123)"></rect> 
<rect x="98.039215686275" width="3.921568627451" height="16" fill="rgb(71, 211, 92)"></rect> 
<rect x="101.96078431373" width="3.921568627451" height="16" fill="rgb(235, 101, 54)"></rect> 
<rect x="105.88235294118" width="3.921568627451" height="16" fill="rgb(234, 72, 92)"></rect> 
<rect x="109.80392156863" width="3.921568627451" height="16" fill="rgb(249, 155, 17)"></rect> 
<rect x="113.72549019608" width="3.921568627451" height="16" fill="rgb(141, 141, 141)"></rect> 
<rect x="117.64705882353" width="3.921568627451" height="16" fill="rgb(237, 118, 77)"></rect> 
<rect x="121.56862745098" width="3.921568627451" height="16" fill="rgb(90, 237, 112)"></rect> 
<rect x="125.49019607843" width="3.921568627451" height="16" fill="rgb(25, 182, 238)"></rect> 
<rect x="129.41176470588" width="3.921568627451" height="16" fill="rgb(154, 153, 150)"></rect> 
<rect x="133.33333333333" width="3.921568627451" height="16" fill="rgb(250, 168, 47)"></rect> 
<rect x="137.25490196078" width="3.921568627451" height="16" fill="rgb(240, 135, 99)"></rect> 
<rect x="141.17647058824" width="3.921568627451" height="16" fill="rgb(183, 118, 176)"></rect> 
<rect x="145.09803921569" width="3.921568627451" height="16" fill="rgb(251, 180, 76)"></rect> 
<rect x="149.01960784314" width="3.921568627451" height="16" fill="rgb(71, 196, 241)"></rect> 
<rect x="152.94117647059" width="3.921568627451" height="16" fill="rgb(242, 152, 121)"></rect> 
<rect x="156.86274509804" width="3.921568627451" height="16" fill="rgb(173, 173, 173)"></rect> 
<rect x="160.78431372549" width="3.921568627451" height="16" fill="rgb(176, 175, 172)"></rect> 
<rect x="164.70588235294" width="3.921568627451" height="16" fill="rgb(197, 144, 191)"></rect> 
<rect x="168.62745098039" width="3.921568627451" height="16" fill="rgb(251, 193, 106)"></rect> 
<rect x="172.54901960784" width="3.921568627451" height="16" fill="rgb(192, 191, 188)"></rect> 
<rect x="176.47058823529" width="3.921568627451" height="16" fill="rgb(117, 211, 244)"></rect> 
<rect x="180.39215686275" width="3.921568627451" height="16" fill="rgb(252, 205, 135)"></rect> 
<rect x="184.3137254902" width="3.921568627451" height="16" fill="rgb(222, 221, 218)"></rect> 
<rect x="188.23529411765" width="3.921568627451" height="16" fill="rgb(246, 245, 244)"></rect> 
<rect x="192.1568627451" width="3.921568627451" height="16" fill="rgb(252, 252, 252)"></rect> 
<rect x="196.07843137255" width="3.921568627451" height="16" fill="rgb(255, 255, 255)"></rect> 
</svg>