<svg xmlns="http://www.w3.org/2000/svg" xmlns:xlink="http://www.w3.org/1999/xlink" width="200" height="16" shape-rendering="crispEdges"> 
<rect x="0.0" width="4.4444444444444" height="16" fill="rgb(0, 0, 0)"></rect> 
<rect x="4.4444444444444" width="4.4444444444444" height="16" fill="rgb(44, 0, 30)"></rect> 
<rect x="8.8888888888889" width="4.4444444444444" height="16" fill="rgb(36, 31, 49)"></rect> 
<rect x="13.333333333333" width="4.4444444444444" height="16" fill="rgb(14, 132, 32)"></rect> 
<rect x="17.777777777778" width="4.4444444444444" height="16" fill="rgb(61, 56, 70)"></rect> 
<rect x="22.222222222222" width="4.4444444444444" height="16" fill="rgb(94, 39, 80)"></rect> 
<rect x="26.666666666667" width="4.4444444444444" height="16" fill="rgb(72, 70, 77)"></rect> 
<rect x="31.111111111111" width="4.4444444444444" height="16" fill="rgb(169, 18, 36)"></rect> 
<rect x="35.555555555556" width="4.4444444444444" height="16" fill="rgb(33, 158, 52)"></rect> 
<rect x="40.0" width="4.4444444444444" height="16" fill="rgb(80, 78, 85)"></rect> 
<rect x="44.444444444444" width="4.4444444444444" height="16" fill="rgb(51, 82, 128)"></rect> 
<rect x="48.888888888889" width="4.4444444444444" height="16" fill="rgb(119, 33, 111)"></rect> 
<rect x="53.333333333333" width="4.4444444444444" height="16" fill="rgb(199, 22, 43)"></rect> 
<rect x="57.777777777778" width="4.4444444444444" height="16" fill="rgb(0, 122, 166)"></rect> 
<rect x="62.222222222222" width="4.4444444444444" height="16" fill="rgb(52, 185, 72)"></rect> 
<rect x="66.666666666667" width="4.4444444444444" height="16" fill="rgb(211, 39, 59)"></rect> 
<rect x="71.111111111111" width="4.4444444444444" height="16" fill="rgb(233, 84, 32)"></rect> 
<rect x="75.555555555556" width="4.4444444444444" height="16" fill="rgb(222, 55, 76)"></rect> 
<rect x="80.0" width="4.4444444444444" height="16" fill="rgb(119, 118, 123)"></rect> 
<rect x="84.444444444444" width="4.4444444444444" height="16" fill="rgb(71, 211, 92)"></rect> 
<rect x="88.888888888889" width="4.4444444444444" height="16" fill="rgb(59, 109, 217)"></rect> 
<rect x="93.333333333333" width="4.4444444444444" height="16" fill="rgb(235, 101, 54)"></rect> 
<rect x="97.777777777778" width="4.4444444444444" height="16" fill="rgb(234, 72, 92)"></rect> 
<rect x="102.22222222222" width="4.4444444444444" height="16" fill="rgb(249, 155, 17)"></rect> 
<rect x="106.66666666667" width="4.4444444444444" height="16" fill="rgb(237, 118, 77)"></rect> 
<rect x="111.11111111111" width="4.4444444444444" height="16" fill="rgb(90, 237, 112)"></rect> 
<rect x="115.55555555556" width="4.4444444444444" height="16" fill="rgb(25, 182, 238)"></rect> 
<rect x="120.0" width="4.4444444444444" height="16" fill="rgb(154, 153, 150)"></rect> 
<rect x="124.44444444444" width="4.4444444444444" height="16" fill="rgb(250, 168, 47)"></rect> 
<rect x="128.88888888889" width="4.4444444444444" height="16" fill="rgb(240, 135, 99)"></rect> 
<rect x="133.33333333333" width="4.4444444444444" height="16" fill="rgb(183, 118, 176)"></rect> 
<rect x="137.77777777778" width="4.4444444444444" height="16" fill="rgb(251, 180, 76)"></rect> 
<rect x="142.22222222222" width="4.4444444444444" height="16" fill="rgb(71, 196, 241)"></rect> 
<rect x="146.66666666667" width="4.4444444444444" height="16" fill="rgb(242, 152, 121)"></rect> 
<rect x="151.11111111111" width="4.4444444444444" height="16" fill="rgb(176, 175, 172)"></rect> 
<rect x="155.55555555556" width="4.4444444444444" height="16" fill="rgb(197, 144, 191)"></rect> 
<rect x="160.0" width="4.4444444444444" height="16" fill="rgb(251, 193, 106)"></rect> 
<rect x="164.44444444444" width="4.4444444444444" height="16" fill="rgb(192, 191, 188)"></rect> 
<rect x="168.88888888889" width="4.4444444444444" height="16" fill="rgb(117, 211, 244)"></rect> 
<rect x="173.33333333333" width="4.4444444444444" height="16" fill="rgb(252, 205, 135)"></rect> 
<rect x="177.77777777778" width="4.4444444444444" height="16" fill="rgb(209, 208, 205)"></rect> 
<rect x="182.22222222222" width="4.4444444444444" height="16" fill="rgb(222, 221, 218)"></rect> 
<rect x="186.66666666667" width="4.4444444444444" height="16" fill="rgb(246, 245, 244)"></rect> 
<rect x="191.11111111111" width="4.4444444444444" height="16" fill="rgb(252, 252, 252)"></rect> 
<rect x="195.55555555556" width="4.4444444444444" height="16" fill="rgb(255, 255, 255)"></rect> 
</svg>