<svg xmlns="http://www.w3.org/2000/svg" xmlns:xlink="http://www.w3.org/1999/xlink" width="200" height="16" shape-rendering="crispEdges"> 
<rect x="0.0" width="3.7735849056604" height="16" fill="rgb(0, 0, 0)"></rect> 
<rect x="3.7735849056604" width="3.7735849056604" height="16" fill="rgb(24, 24, 24)"></rect> 
<rect x="7.5471698113208" width="3.7735849056604" height="16" fill="rgb(44, 0, 30)"></rect> 
<rect x="11.320754716981" width="3.7735849056604" height="16" fill="rgb(34, 34, 34)"></rect> 
<rect x="15.094339622642" width="3.7735849056604" height="16" fill="rgb(38, 38, 38)"></rect> 
<rect x="18.867924528302" width="3.7735849056604" height="16" fill="rgb(36, 31, 49)"></rect> 
<rect x="22.641509433962" width="3.7735849056604" height="16" fill="rgb(44, 44, 44)"></rect> 
<rect x="26.415094339623" width="3.7735849056604" height="16" fill="rgb(48, 48, 48)"></rect> 
<rect x="30.188679245283" width="3.7735849056604" height="16" fill="rgb(14, 132, 32)"></rect> 
<rect x="33.962264150943" width="3.7735849056604" height="16" fill="rgb(59, 58, 63)"></rect> 
<rect x="37.735849056604" width="3.7735849056604" height="16" fill="rgb(61, 56, 70)"></rect> 
<rect x="41.509433962264" width="3.7735849056604" height="16" fill="rgb(66, 66, 66)"></rect> 
<rect x="45.283018867925" width="3.7735849056604" height="16" fill="rgb(94, 39, 80)"></rect> 
<rect x="49.056603773585" width="3.7735849056604" height="16" fill="rgb(169, 18, 36)"></rect> 
<rect x="52.830188679245" width="3.7735849056604" height="16" fill="rgb(33, 158, 52)"></rect> 
<rect x="56.603773584906" width="3.7735849056604" height="16" fill="rgb(80, 78, 85)"></rect> 
<rect x="60.377358490566" width="3.7735849056604" height="16" fill="rgb(51, 82, 128)"></rect> 
<rect x="64.150943396226" width="3.7735849056604" height="16" fill="rgb(119, 33, 111)"></rect> 
<rect x="67.924528301887" width="3.7735849056604" height="16" fill="rgb(199, 22, 43)"></rect> 
<rect x="71.698113207547" width="3.7735849056604" height="16" fill="rgb(94, 92, 100)"></rect> 
<rect x="75.471698113208" width="3.7735849056604" height="16" fill="rgb(0, 122, 166)"></rect> 
<rect x="79.245283018868" width="3.7735849056604" height="16" fill="rgb(211, 39, 59)"></rect> 
<rect x="83.018867924528" width="3.7735849056604" height="16" fill="rgb(52, 185, 72)"></rect> 
<rect x="86.792452830189" width="3.7735849056604" height="16" fill="rgb(233, 84, 32)"></rect> 
<rect x="90.566037735849" width="3.7735849056604" height="16" fill="rgb(222, 55, 76)"></rect> 
<rect x="94.339622641509" width="3.7735849056604" height="16" fill="rgb(119, 118, 123)"></rect> 
<rect x="98.11320754717" width="3.7735849056604" height="16" fill="rgb(71, 211, 92)"></rect> 
<rect x="101.88679245283" width="3.7735849056604" height="16" fill="rgb(235, 101, 54)"></rect> 
<rect x="105.66037735849" width="3.7735849056604" height="16" fill="rgb(234, 72, 92)"></rect> 
<rect x="109.43396226415" width="3.7735849056604" height="16" fill="rgb(106, 90, 205)"></rect> 
<rect x="113.20754716981" width="3.7735849056604" height="16" fill="rgb(249, 155, 17)"></rect> 
<rect x="116.98113207547" width="3.7735849056604" height="16" fill="rgb(141, 141, 141)"></rect> 
<rect x="120.75471698113" width="3.7735849056604" height="16" fill="rgb(144, 143, 140)"></rect> 
<rect x="124.52830188679" width="3.7735849056604" height="16" fill="rgb(237, 118, 77)"></rect> 
<rect x="128.30188679245" width="3.7735849056604" height="16" fill="rgb(90, 237, 112)"></rect> 
<rect x="132.07547169811" width="3.7735849056604" height="16" fill="rgb(25, 182, 238)"></rect> 
<rect x="135.84905660377" width="3.7735849056604" height="16" fill="rgb(250, 168, 47)"></rect> 
<rect x="139.62264150943" width="3.7735849056604" height="16" fill="rgb(240, 135, 99)"></rect> 
<rect x="143.39622641509" width="3.7735849056604" height="16" fill="rgb(183, 118, 176)"></rect> 
<rect x="147.16981132075" width="3.7735849056604" height="16" fill="rgb(251, 180, 76)"></rect> 
<rect x="150.94339622642" width="3.7735849056604" height="16" fill="rgb(71, 196, 241)"></rect> 
<rect x="154.71698113208" width="3.7735849056604" height="16" fill="rgb(242, 152, 121)"></rect> 
<rect x="158.49056603774" width="3.7735849056604" height="16" fill="rgb(173, 173, 173)"></rect> 
<rect x="162.2641509434" width="3.7735849056604" height="16" fill="rgb(176, 175, 172)"></rect> 
<rect x="166.03773584906" width="3.7735849056604" height="16" fill="rgb(197, 144, 191)"></rect> 
<rect x="169.81132075472" width="3.7735849056604" height="16" fill="rgb(251, 193, 106)"></rect> 
<rect x="173.58490566038" width="3.7735849056604" height="16" fill="rgb(192, 191, 188)"></rect> 
<rect x="177.35849056604" width="3.7735849056604" height="16" fill="rgb(117, 211, 244)"></rect> 
<rect x="181.1320754717" width="3.7735849056604" height="16" fill="rgb(252, 205, 135)"></rect> 
<rect x="184.90566037736" width="3.7735849056604" height="16" fill="rgb(222, 221, 218)"></rect> 
<rect x="188.67924528302" width="3.7735849056604" height="16" fill="rgb(246, 245, 244)"></rect> 
<rect x="192.45283018868" width="3.7735849056604" height="16" fill="rgb(252, 252, 252)"></rect> 
<rect x="196.22641509434" width="3.7735849056604" height="16" fill="rgb(255, 255, 255)"></rect> 
</svg>