<svg xmlns="http://www.w3.org/2000/svg" xmlns:xlink="http://www.w3.org/1999/xlink" width="200" height="16" shape-rendering="crispEdges"> 
<rect x="0.0" width="4.5454545454545" height="16" fill="rgb(0, 0, 0)"></rect> 
<rect x="4.5454545454545" width="4.5454545454545" height="16" fill="rgb(44, 0, 30)"></rect> 
<rect x="9.0909090909091" width="4.5454545454545" height="16" fill="rgb(36, 31, 49)"></rect> 
<rect x="13.636363636364" width="4.5454545454545" height="16" fill="rgb(14, 132, 32)"></rect> 
<rect x="18.181818181818" width="4.5454545454545" height="16" fill="rgb(61, 56, 70)"></rect> 
<rect x="22.727272727273" width="4.5454545454545" height="16" fill="rgb(94, 39, 80)"></rect> 
<rect x="27.272727272727" width="4.5454545454545" height="16" fill="rgb(169, 18, 36)"></rect> 
<rect x="31.818181818182" width="4.5454545454545" height="16" fill="rgb(80, 78, 85)"></rect> 
<rect x="36.363636363636" width="4.5454545454545" height="16" fill="rgb(33, 158, 52)"></rect> 
<rect x="40.909090909091" width="4.5454545454545" height="16" fill="rgb(51, 82, 128)"></rect> 
<rect x="45.454545454545" width="4.5454545454545" height="16" fill="rgb(119, 33, 111)"></rect> 
<rect x="50.0" width="4.5454545454545" height="16" fill="rgb(199, 22, 43)"></rect> 
<rect x="54.545454545455" width="4.5454545454545" height="16" fill="rgb(94, 92, 100)"></rect> 
<rect x="59.090909090909" width="4.5454545454545" height="16" fill="rgb(0, 122, 166)"></rect> 
<rect x="63.636363636364" width="4.5454545454545" height="16" fill="rgb(211, 39, 59)"></rect> 
<rect x="68.181818181818" width="4.5454545454545" height="16" fill="rgb(52, 185, 72)"></rect> 
<rect x="72.727272727273" width="4.5454545454545" height="16" fill="rgb(233, 84, 32)"></rect> 
<rect x="77.272727272727" width="4.5454545454545" height="16" fill="rgb(222, 55, 76)"></rect> 
<rect x="81.818181818182" width="4.5454545454545" height="16" fill="rgb(119, 118, 123)"></rect> 
<rect x="86.363636363636" width="4.5454545454545" height="16" fill="rgb(71, 211, 92)"></rect> 
<rect x="90.909090909091" width="4.5454545454545" height="16" fill="rgb(235, 101, 54)"></rect> 
<rect x="95.454545454545" width="4.5454545454545" height="16" fill="rgb(234, 72, 92)"></rect> 
<rect x="100.0" width="4.5454545454545" height="16" fill="rgb(249, 155, 17)"></rect> 
<rect x="104.54545454545" width="4.5454545454545" height="16" fill="rgb(237, 118, 77)"></rect> 
<rect x="109.09090909091" width="4.5454545454545" height="16" fill="rgb(90, 237, 112)"></rect> 
<rect x="113.63636363636" width="4.5454545454545" height="16" fill="rgb(25, 182, 238)"></rect> 
<rect x="118.18181818182" width="4.5454545454545" height="16" fill="rgb(154, 153, 150)"></rect> 
<rect x="122.72727272727" width="4.5454545454545" height="16" fill="rgb(250, 168, 47)"></rect> 
<rect x="127.27272727273" width="4.5454545454545" height="16" fill="rgb(240, 135, 99)"></rect> 
<rect x="131.81818181818" width="4.5454545454545" height="16" fill="rgb(183, 118, 176)"></rect> 
<rect x="136.36363636364" width="4.5454545454545" height="16" fill="rgb(251, 180, 76)"></rect> 
<rect x="140.90909090909" width="4.5454545454545" height="16" fill="rgb(71, 196, 241)"></rect> 
<rect x="145.45454545455" width="4.5454545454545" height="16" fill="rgb(242, 152, 121)"></rect> 
<rect x="150.0" width="4.5454545454545" height="16" fill="rgb(176, 175, 172)"></rect> 
<rect x="154.54545454545" width="4.5454545454545" height="16" fill="rgb(197, 144, 191)"></rect> 
<rect x="159.09090909091" width="4.5454545454545" height="16" fill="rgb(251, 193, 106)"></rect> 
<rect x="163.63636363636" width="4.5454545454545" height="16" fill="rgb(192, 191, 188)"></rect> 
<rect x="168.18181818182" width="4.5454545454545" height="16" fill="rgb(117, 211, 244)"></rect> 
<rect x="172.72727272727" width="4.5454545454545" height="16" fill="rgb(252, 205, 135)"></rect> 
<rect x="177.27272727273" width="4.5454545454545" height="16" fill="rgb(209, 208, 205)"></rect> 
<rect x="181.81818181818" width="4.5454545454545" height="16" fill="rgb(222, 221, 218)"></rect> 
<rect x="186.36363636364" width="4.5454545454545" height="16" fill="rgb(246, 245, 244)"></rect> 
<rect x="190.90909090909" width="4.5454545454545" height="16" fill="rgb(252, 252, 252)"></rect> 
<rect x="195.45454545455" width="4.5454545454545" height="16" fill="rgb(255, 255, 255)"></rect> 
</svg>