<svg xmlns="http://www.w3.org/2000/svg" xmlns:xlink="http://www.w3.org/1999/xlink" width="200" height="16" shape-rendering="crispEdges"> 
<rect x="0.0" width="9.5238095238095" height="16" fill="rgb(43, 43, 43)"></rect> 
<rect x="9.5238095238095" width="9.5238095238095" height="16" fill="rgb(47, 47, 47)"></rect> 
<rect x="19.047619047619" width="9.5238095238095" height="16" fill="rgb(56, 56, 56)"></rect> 
<rect x="28.571428571429" width="9.5238095238095" height="16" fill="rgb(61, 61, 61)"></rect> 
<rect x="38.095238095238" width="9.5238095238095" height="16" fill="rgb(64, 64, 64)"></rect> 
<rect x="47.619047619048" width="9.5238095238095" height="16" fill="rgb(76, 76, 76)"></rect> 
<rect x="57.142857142857" width="9.5238095238095" height="16" fill="rgb(84, 84, 84)"></rect> 
<rect x="66.666666666667" width="9.5238095238095" height="16" fill="rgb(94, 94, 94)"></rect> 
<rect x="76.190476190476" width="9.5238095238095" height="16" fill="rgb(103, 107, 152)"></rect> 
<rect x="85.714285714286" width="9.5238095238095" height="16" fill="rgb(127, 159, 127)"></rect> 
<rect x="95.238095238095" width="9.5238095238095" height="16" fill="rgb(143, 143, 143)"></rect> 
<rect x="104.7619047619" width="9.5238095238095" height="16" fill="rgb(204, 147, 147)"></rect> 
<rect x="114.28571428571" width="9.5238095238095" height="16" fill="rgb(223, 175, 143)"></rect> 
<rect x="123.80952380952" width="9.5238095238095" height="16" fill="rgb(140, 208, 211)"></rect> 
<rect x="133.33333333333" width="9.5238095238095" height="16" fill="rgb(239, 239, 143)"></rect> 
<rect x="142.85714285714" width="9.5238095238095" height="16" fill="rgb(223, 223, 191)"></rect> 
<rect x="152.38095238095" width="9.5238095238095" height="16" fill="rgb(240, 223, 175)"></rect> 
<rect x="161.90476190476" width="9.5238095238095" height="16" fill="rgb(220, 220, 204)"></rect> 
<rect x="171.42857142857" width="9.5238095238095" height="16" fill="rgb(240, 239, 208)"></rect> 
<rect x="180.95238095238" width="9.5238095238095" height="16" fill="rgb(255, 238, 230)"></rect> 
<rect x="190.47619047619" width="9.5238095238095" height="16" fill="rgb(248, 248, 240)"></rect> 
</svg>