<svg xmlns="http://www.w3.org/2000/svg" xmlns:xlink="http://www.w3.org/1999/xlink" width="200" height="16" shape-rendering="crispEdges"> 
<rect x="0.0" width="9.0909090909091" height="16" fill="rgb(43, 43, 43)"></rect> 
<rect x="9.0909090909091" width="9.0909090909091" height="16" fill="rgb(47, 47, 47)"></rect> 
<rect x="18.181818181818" width="9.0909090909091" height="16" fill="rgb(56, 56, 56)"></rect> 
<rect x="27.272727272727" width="9.0909090909091" height="16" fill="rgb(61, 61, 61)"></rect> 
<rect x="36.363636363636" width="9.0909090909091" height="16" fill="rgb(64, 64, 64)"></rect> 
<rect x="45.454545454545" width="9.0909090909091" height="16" fill="rgb(76, 76, 76)"></rect> 
<rect x="54.545454545455" width="9.0909090909091" height="16" fill="rgb(94, 94, 94)"></rect> 
<rect x="63.636363636364" width="9.0909090909091" height="16" fill="rgb(204, 102, 0)"></rect> 
<rect x="72.727272727273" width="9.0909090909091" height="16" fill="rgb(102, 102, 102)"></rect> 
<rect x="81.818181818182" width="9.0909090909091" height="16" fill="rgb(127, 159, 127)"></rect> 
<rect x="90.909090909091" width="9.0909090909091" height="16" fill="rgb(143, 143, 143)"></rect> 
<rect x="100.0" width="9.0909090909091" height="16" fill="rgb(204, 147, 147)"></rect> 
<rect x="109.09090909091" width="9.0909090909091" height="16" fill="rgb(166, 166, 166)"></rect> 
<rect x="118.18181818182" width="9.0909090909091" height="16" fill="rgb(223, 175, 143)"></rect> 
<rect x="127.27272727273" width="9.0909090909091" height="16" fill="rgb(140, 208, 211)"></rect> 
<rect x="136.36363636364" width="9.0909090909091" height="16" fill="rgb(239, 239, 143)"></rect> 
<rect x="145.45454545455" width="9.0909090909091" height="16" fill="rgb(223, 223, 191)"></rect> 
<rect x="154.54545454545" width="9.0909090909091" height="16" fill="rgb(240, 223, 175)"></rect> 
<rect x="163.63636363636" width="9.0909090909091" height="16" fill="rgb(220, 220, 204)"></rect> 
<rect x="172.72727272727" width="9.0909090909091" height="16" fill="rgb(240, 239, 208)"></rect> 
<rect x="181.81818181818" width="9.0909090909091" height="16" fill="rgb(248, 248, 240)"></rect> 
<rect x="190.90909090909" width="9.0909090909091" height="16" fill="rgb(255, 255, 255)"></rect> 
</svg>